<svg xmlns="http://www.w3.org/2000/svg" xmlns:xlink="http://www.w3.org/1999/xlink" preserveAspectRatio="none" viewBox="0 0 182 273">
    <defs>
        <path id="arm_0_Layer1_0_FILL" fill="#E17107" d="M-27.2-7.25q-.29.649-.05 1.3 7.05 21.615 53.3 10.4.712-.177 1.1-.8.375-.621.2-1.35-.176-.674-.8-1.05-.61-.374-1.3-.2-42.46 10.287-49.2-8.15-.244-.658-.9-1-.648-.29-1.35-.05-.657.243-1 .9z"/>
        <path id="legCrossed_0_Layer1_0_FILL" fill="#E17107" d="M21.45-10.3q-.705-.161-1.35.2-35.871 22.353-53.85 5.35-.5-.507-1.25-.5-.696.007-1.2.5-.508.55-.5 1.25.008.744.5 1.25 19.468 19.199 58.15-4.9.637-.354.8-1.05.162-.706-.25-1.35-.353-.588-1.05-.75z"/>
        <g id="bot_shoulder_0_Layer1_0_FILL">
            <path fill="#E17107" d="M-.15-11.1h-3q-1.987.013-3.55.85-.07.03-.15.05-1.003.494-1.85 1.3 0 .04-.05.05-2.206 2.36-2.2 5.55v6.6q.009 3.298 2.25 5.5.264.25.65.55.073.038.1.05 2.07 1.7 4.8 1.7h3q2.73 0 4.75-1.7.077-.01.1-.05.45-.3.7-.55h-.05q2.29-2.202 2.3-5.5v-6.6q.006-3.19-2.25-5.55v-.05q-.866-.835-1.95-1.35-1.566-.849-3.6-.85m-3 3.5h3q1.12-.001 2 .45.077.066.15.1.48.215.85.6.05.026.05.05 1.244 1.325 1.25 3.1v6.6q.009 1.801-1.25 3-.107.133-.35.25-.025.075-.1.1-1.095.962-2.6.95h-3q-1.505.012-2.65-.95l-.1-.1q-.18-.117-.3-.25h-.05q-1.209-1.199-1.2-3v-6.6q.006-1.81 1.25-3.15v.05q.404-.419.9-.65.073-.034.15-.1.876-.463 2-.45z"/>
            <path fill="#FFF" d="M-.15-7.6h-3q-1.124-.013-2 .45-.077.066-.15.1-.496.231-.9.65v-.05Q-7.444-5.11-7.45-3.3v6.6q-.009 1.801 1.2 3h.05q.12.133.3.25l.1.1q1.145.962 2.65.95h3q1.505.012 2.6-.95.075-.025.1-.1.243-.117.35-.25 1.259-1.199 1.25-3v-6.6Q4.144-5.075 2.9-6.4q0-.024-.05-.05-.37-.385-.85-.6-.073-.034-.15-.1-.88-.451-2-.45z"/>
        </g>
        <g id="bot_neck_0_Layer1_0_FILL">
            <path fill="#E17107" d="M-8-10.5q-.494.531-.5 1.25V7.3q.006.719.5 1.2.531.544 1.25.55.719-.006 1.2-.55.544-.481.55-1.2V-9.25q-.006-.719-.55-1.25-.481-.494-1.2-.5-.719.006-1.25.5m13.6 0q-.494.531-.5 1.25V7.3q.006.719.5 1.2.531.544 1.25.55.719-.006 1.2-.55.544-.481.55-1.2V-9.25q-.006-.719-.55-1.25-.481-.494-1.2-.5-.719.006-1.25.5z"/>
            <path fill="#FFF" d="M5.1 7.3V-9.25H-5V7.3H5.1z"/>
        </g>
        <g id="bot_body_0_Layer1_0_FILL">
            <path fill="#E17107" d="M27.4-19.85q.148-9.3-10.85-9.3H-16.5Q-25.482-29.155-27-23q-.4 1.366-.4 3.15l.1 40.75-.1 1.25q-.003.092 0 .15.003.725.1 1.45.005 1.037.35 1.85 1.59 6.005 10.45 6h33.05q9.476-.006 10.7-6.85.015-.063 0-.15.144-.878.15-1.95v-42.5m-10.85-5.8q7.206 0 7.35 5.8v42.5q.005.795-.1 1.45-1.073 4.006-7.25 4H-16.5q-5.908-.005-7.15-3.65-.003-.1-.05-.25-.097-.207-.1-.5l-.1-43.55q0-1.216.25-2.15v-.05q1.242-3.595 7.15-3.6h33.05z"/>
            <path fill="#FFF" d="M23.9-19.85q-.144-5.8-7.35-5.8H-16.5q-5.908.005-7.15 3.6v.05q-.25.934-.25 2.15l.1 43.55q.003.293.1.5.047.15.05.25 1.242 3.645 7.15 3.65h33.05q6.177.006 7.25-4 .105-.655.1-1.45v-42.5z"/>
        </g>
        <path id="bot_antenna_meditate_0_Layer1_0_FILL" fill="#E17107" d="M8.85 12.2q.281-.437.15-.95-.072-.496-.5-.8-.437-.27-.95-.2-.507.122-.8.55Q-.842 22.123.5 38.6q.049.514.45.85.39.339.9.3.514-.048.85-.45.338-.39.3-.9-1.258-15.523 5.85-26.2M1.45-4.7q-.445.242-.65.7-7.292 19.646-8.3 42.95-.023.518.3.9.38.38.9.4.517.024.9-.35.38-.331.4-.85.992-22.896 8.15-42.2.198-.457-.05-.95-.192-.445-.7-.65-.456-.149-.95.05z"/>
        <g id="bot_head_0_Layer1_0_FILL">
            <path fill="#E17107" d="M27.75-39.55l.1.05q-4.276-3.677-9.2-5.95 0 .012-.05 0-8.488-4.137-18.55-4.4h-.1q-10.063.263-18.6 4.4 0 .013-.05 0-4.823 2.273-9.1 5.95l.05-.05q-1.65 1.341-3.35 3-5.21 5.186-8.55 11.1-4.829 9.168-5.3 20.05l-.25 35.15q-.004.108 0 .2.146 1.665.15 2.95v.05q.35 15.106 15 16.5h.05q9.142.804 29.6.5h.05q21.128.456 30.4-.5 14.663-1.376 15.05-16.5v-.05q.002-1.306.1-3 .002-.055 0-.1L45-5.3v-.1q-.47-10.883-5.35-20.05h-.05q-3.28-5.9-8.45-11.1-1.687-1.659-3.4-3m-2.2 2.7q.04.05.05.05 1.55 1.221 3.05 2.75 4.842 4.813 7.9 10.3v-.05q4.503 8.451 4.95 18.5l.2 35.1q-.1 1.713-.1 3.05-.313 11.976-11.9 13.1-9.154.942-30 .5h-.1q-20.225.295-29.3-.5-11.576-1.104-11.85-13.05v-.05q.001-1.398-.15-3.2l.25-34.9q.429-10.068 4.9-18.55l-.05.05q3.11-5.487 7.95-10.3h.05q1.513-1.529 3-2.75.06 0 .1-.05 3.901-3.354 8.3-5.4.047-.013.05-.05 7.85-3.793 17.1-4.05h.1q9.25.257 17.05 4.05.05.036.05.05 4.498 2.046 8.4 5.4z"/>
            <path fill="#FFF" d="M25.6-36.8q-.01 0-.05-.05-3.902-3.354-8.4-5.4 0-.014-.05-.05Q9.3-46.093.05-46.35h-.1q-9.25.257-17.1 4.05-.003.037-.05.05-4.399 2.046-8.3 5.4-.04.05-.1.05-1.487 1.221-3 2.75h-.05q-4.84 4.813-7.95 10.3l.05-.05q-4.471 8.482-4.9 18.55l-.25 34.9q.151 1.802.15 3.2v.05q.274 11.946 11.85 13.05 9.075.795 29.3.5h.1q20.846.442 30-.5 11.587-1.124 11.9-13.1 0-1.337.1-3.05l-.2-35.1q-.447-10.049-4.95-18.5v.05q-3.058-5.487-7.9-10.3-1.5-1.529-3.05-2.75z"/>
        </g>
        <path id="bot_eye_meditate_0_Layer1_0_FILL" fill="#E17107" d="M8.55-3.25q-.432.61-.35 1.3.102.542.1 1.1Q8.305 2.653 5.85 5 3.385 7.448-.1 7.45-3.473 7.452-5.9 5-8.257 2.668-8.25-.85q.003-.635.05-1.25.051-.685-.45-1.25-.451-.535-1.2-.6-.685-.052-1.25.4-.535.502-.6 1.2-.053.735-.05 1.5.02 4.995 3.35 8.35 3.486 3.46 8.3 3.45 4.915.001 8.4-3.45 3.495-3.352 3.5-8.35-.002-.842-.15-1.65-.088-.678-.7-1.1-.56-.432-1.3-.35-.68.138-1.1.7z"/>
        <path id="bot_mouth_01_0_Layer1_0_FILL" fill="#E17107" d="M43.25-2.3q-.593-.396-1.3-.3Q2.222 4.473-42.1-2.7q-.688-.095-1.3.3-.561.456-.7 1.15-.096.737.3 1.3.457.61 1.15.7 44.928 7.277 85.2.1.71-.104 1.1-.7.447-.592.3-1.3-.104-.71-.7-1.15z"/>
        <g id="bot_foot_01_bottom_bigger_0_Layer1_0_FILL">
            <path fill="#E17107" d="M1.15-12.8H-.5q-6.228.268-10.7 4.85-.025.05-.05.05-5.259 5.039-5.25 12.05-.003.697.1 1.4-.101.44-.1.85-.37 3.185 5.7 5h-.05Q-6.107 12.902.5 12.9q6.609.003 11.25-1.5 6.125-1.812 5.75-5v-.35-1.9q.001-6.995-5.05-12 0-.025-.05-.05-4.378-4.618-11.25-4.9M9.9-5.45q.05.022.05.05 3.519 3.455 3.95 8.1-.962-.449-2.3-.85Q7.02.396.5.4-6.02.397-10.7 1.85q-1.259.412-2.25.85.507-4.624 4.15-8.1.026-.003.05-.05Q-5.265-9.042-.4-9.3h1.5q5.364.241 8.8 3.85m.95 9.7q2.254.676 3.15 1.4v.75q-.317.794-3.25 1.65h-.05Q6.491 9.397.5 9.4q-5.993-.002-10.3-1.35-2.887-.852-3.2-1.65.174-.4.15-.85.929-.667 2.9-1.3Q-5.581 2.903.5 2.9q6.08.004 10.35 1.35z"/>
            <path fill="#FFF" d="M14 5.65q-.896-.724-3.15-1.4Q6.58 2.904.5 2.9q-6.081.003-10.45 1.35-1.971.633-2.9 1.3.024.45-.15.85.313.798 3.2 1.65Q-5.493 9.398.5 9.4q5.991-.003 10.2-1.35h.05Q13.683 7.194 14 6.4v-.35-.4M9.95-5.4q0-.028-.05-.05Q6.464-9.059 1.1-9.3H-.4q-4.865.258-8.35 3.85-.024.047-.05.05-3.643 3.476-4.15 8.1.991-.438 2.25-.85Q-6.02.397.5.4 7.02.396 11.6 1.85q1.338.401 2.3.85-.431-4.645-3.95-8.1z"/>
        </g>
        <g id="bot_bottom_0_Layer1_0_FILL">
            <path fill="#E17107" d="M27.3-7q-2.302-1.787-5.4-1.8h-43.8q-1.826.005-3.4.7-.101.045-.2.1-.185.115-.35.2-1.207.502-2.3 1.55Q-30.69-3.673-30.7 0q.015 3.74 2.55 6.3 2.577 2.552 6.25 2.55h43.8q3.665-.002 6.25-2.55h.05q2.547-2.56 2.55-6.3.002-3.673-2.55-6.25-.064-.037-.15-.1-.102-.15-.25-.3-.26-.177-.5-.35m-2.15 2.75l.05.05q.132.104.3.2l.1.1q.059.095.1.15Q27.26-2.214 27.25 0q.015 2.272-1.55 3.8-1.565 1.552-3.8 1.55h-43.8q-2.214.01-3.75-1.55-1.553-1.528-1.55-3.8.002-2.214 1.55-3.75.58-.599 1.25-.85.374-.112.65-.4.87-.305 1.85-.3h43.8q1.883-.013 3.25 1.05z"/>
            <path fill="#FFF" d="M25.2-4.2l-.05-.05Q23.783-5.313 21.9-5.3h-43.8q-.98-.005-1.85.3-.276.288-.65.4-.67.251-1.25.85Q-27.198-2.214-27.2 0q-.003 2.272 1.55 3.8 1.536 1.56 3.75 1.55h43.8q2.235.002 3.8-1.55 1.565-1.528 1.55-3.8.01-2.214-1.55-3.75-.041-.055-.1-.15l-.1-.1q-.168-.096-.3-.2z"/>
        </g>
        <path id="bot_chestIcon_0_Layer1_0_FILL" fill="#E17107" d="M-13.35-1.45q-.6 5.531 2.8 9.8 3.557 4.44 9.05 5.05 5.532.604 9.8-2.9v.05q4.444-3.438 5.05-9 .603-5.55-2.9-9.8-3.394-4.276-8.9-4.9H1.5q-5.525-.654-9.95 2.75-4.227 3.441-4.9 8.95m2.5.3v-.05q.536-4.45 3.95-7.25v.05q3.615-2.789 8.15-2.25 4.502.486 7.25 3.95v.05q2.846 3.45 2.35 7.95-.494 4.487-4.1 7.25-3.482 2.846-8 2.35-4.457-.49-7.35-4.1-2.743-3.471-2.25-7.95m6.9-5.15l-.05.05Q-6.554-4.574-7.3-1.7q-.629 2.986.85 5.65.036.049.05.1 1.803 2.615 4.65 3.25 3.011.734 5.7-.95 2.663-1.613 3.3-4.55.744-2.956-.95-5.7v-.05q-1.616-2.545-4.5-3.1-.025-.014-.1-.05-2.916-.77-5.65.8m-.9 5.15q.514-1.883 2.2-3 1.847-1.046 3.8-.5.076.014.1 0 1.895.39 2.95 2.05h-.05Q5.3-.754 4.8 1.25 4.387 3.163 2.65 4.2v.05q-1.8 1.11-3.8.6h-.05q-1.853-.413-3.05-2.1-1.015-1.825-.6-3.85v-.05z"/>
        <g id="forearm_larger_0_Layer1_0_FILL">
            <path fill="#E17107" d="M-4.3-25.1h-.1q-2.822.09-4.75 2.7h-.05q-1.583 2.204-2.45 6.5.007.127 0 .2L-13.1 3.05q-1.552 19.55 6.4 20.5.153.05.3.05H6.05q.538.006 1.25-.15.19-.008.35-.1 6.852-2.298 5.2-20.3V3l-1.9-18.75q-.01-.033-.05-.1-.705-4.307-2.2-6.5-.013.003-.05-.05-1.249-1.72-2.9-2.4-.037.012-.1 0-.325-.19-5.35-.25-2.275-.05-4.6-.05m-3.85 9.8q.647-3.324 1.8-5.05.887-1.141 2.1-1.25 2.26.001 4.45.05 3.729.036 4.25.05.77.348 1.35 1.15 1.092 1.72 1.65 4.95l1.9 18.75q1.326 14.408-2.9 16.7-.213.046-.4.05H-6.2q-4.634-1.312-3.4-16.75V3.3l1.45-18.6z"/>
            <path fill="#FFF" d="M-6.35-20.35q-1.153 1.726-1.8 5.05L-9.6 3.3v.05q-1.234 15.438 3.4 16.75H6.05q.187-.004.4-.05 4.226-2.292 2.9-16.7L7.45-15.4q-.558-3.23-1.65-4.95-.58-.802-1.35-1.15-.521-.014-4.25-.05-2.19-.049-4.45-.05-1.213.109-2.1 1.25z"/>
        </g>
        <path id="hand_0_Layer1_0_FILL" fill="#E17107" d="M6.05-8q1.448.459 2.15 1.75l.05.1q.165.249.25.5.292.868.1 1.75-.16.735.2 1.35.42.603 1.1.75.736.161 1.35-.25.603-.369.75-1.1.408-1.868-.2-3.65v.05q-.215-.649-.6-1.25l.1.1q-1.398-2.56-4.25-3.45-2.074-.606-4-.05-.096-.151-.25-.3-.454-.549-1.2-.6-.699-.05-1.25.4-9.372 8.167-12.45 22.15-.16.735.2 1.35.418.603 1.1.75.735.161 1.35-.25.602-.369.75-1.1Q-7.454 5.374-5.1.75-6.447 5.631-6.15 9.7q.052.746.6 1.2.55.5 1.25.45.746-.051 1.2-.6.5-.55.45-1.3-.185-2.92.55-6.35Q-.683 5.256 1.85 6q2.845.892 5.4-.5 2.609-1.398 3.45-4.25.239-.687-.1-1.35-.351-.614-1.05-.85-.688-.19-1.35.15-.613.35-.85 1.05Q6.94 1.698 5.6 2.4q-1.296.708-2.75.25Q1.402 2.24.7.9-.008-.396.4-1.85l1.1-3.7q.459-1.448 1.75-2.15 1.345-.708 2.8-.3z"/>
        <path id="shadow_0_Layer0_0_FILL" fill="#E17107" d="M35.9-5.9Q21.03-7.506 0-7.5q-21.031-.006-35.9 1.6Q-52.888-4.054-52.45 0q-.438 4.054 16.55 5.9Q-21.031 7.506 0 7.5q21.03.006 35.9-1.6Q52.889 4.054 52.45 0q.439-4.054-16.55-5.9z"/>
    </defs>
    <use transform="matrix(-1 0 0 1 144.25 136.55)" xlink:href="#arm_0_Layer1_0_FILL"/>
    <use transform="translate(88.15 198.55)" xlink:href="#legCrossed_0_Layer1_0_FILL"/>
    <use transform="matrix(-1 0 0 1 98.9 198.55)" xlink:href="#legCrossed_0_Layer1_0_FILL"/>
    <use transform="translate(38.25 137.55)" xlink:href="#arm_0_Layer1_0_FILL"/>
    <use transform="matrix(-.99084 .13158 .13158 .99084 66.2 141.6)" xlink:href="#bot_shoulder_0_Layer1_0_FILL"/>
    <use transform="matrix(.9941 .10518 -.10518 .9941 120.1 140.4)" xlink:href="#bot_shoulder_0_Layer1_0_FILL"/>
    <use transform="matrix(.99985 -.01335 .01335 .99985 91.85 123.05)" xlink:href="#bot_neck_0_Layer1_0_FILL"/>
    <use transform="matrix(.99985 -.01315 .01315 .99985 93.5 155.25)" xlink:href="#bot_body_0_Layer1_0_FILL"/>
    <use transform="rotate(10.067 22.582 665.627) scale(.99941)" xlink:href="#bot_antenna_meditate_0_Layer1_0_FILL"/>
    <use transform="translate(90.25 71.6)" xlink:href="#bot_head_0_Layer1_0_FILL"/>
    <use transform="translate(69.75 55.2)" xlink:href="#bot_eye_meditate_0_Layer1_0_FILL"/>
    <use transform="translate(110.7 54.3)" xlink:href="#bot_eye_meditate_0_Layer1_0_FILL"/>
    <use transform="matrix(.99985 -.01312 .01312 .99985 90.3 73.35)" xlink:href="#bot_mouth_01_0_Layer1_0_FILL"/>
    <use transform="rotate(-114.8 132.216 48.277) scale(.99872)" xlink:href="#bot_foot_01_bottom_bigger_0_Layer1_0_FILL"/>
    <use transform="matrix(.99985 -.01335 .01335 .99985 93.5 183.95)" xlink:href="#bot_bottom_0_Layer1_0_FILL"/>
    <use transform="matrix(.99985 -.01335 .01335 .99985 93.45 153.05)" xlink:href="#bot_chestIcon_0_Layer1_0_FILL"/>
    <use transform="matrix(.9589 .28053 .28053 -.9589 20.15 110.5)" xlink:href="#forearm_larger_0_Layer1_0_FILL"/>
    <use transform="matrix(.9589 .28052 .28052 -.9589 25.55 75.9)" xlink:href="#hand_0_Layer1_0_FILL"/>
    <use transform="rotate(160.677 71.225 68.488) scale(.99896)" xlink:href="#forearm_larger_0_Layer1_0_FILL"/>
    <use transform="rotate(160.677 70.775 51.485) scale(.99896)" xlink:href="#hand_0_Layer1_0_FILL"/>
    <use transform="rotate(128.632 -22.863 103.545) scale(.99838)" xlink:href="#bot_foot_01_bottom_bigger_0_Layer1_0_FILL"/>
    <use transform="translate(94.3 266.25)" xlink:href="#shadow_0_Layer0_0_FILL"/>
</svg>
