
<svg xmlns="http://www.w3.org/2000/svg" version="1.1" xmlns:xlink="http://www.w3.org/1999/xlink" preserveAspectRatio="none" x="0px" y="0px" width="456px" height="512px" viewBox="0 0 456 512">
<defs>
<g id="dns_flagLight_0_Layer0_0_FILL">
<path fill="#FCAB2C" stroke="none" d="
M 11.25 53.45
L 7.1 -46.35 -6.85 -46.35 -10.8 53.45 11.25 53.45 Z"/>

<path fill="#FFFFFF" stroke="none" d="
M 7.8 120.35
L 9.25 76.35 -8.75 76.35 -7.3 120.35 7.8 120.35
M 9.25 76.35
Q 15.95 74.9 16.3 72.05
L 17.8 57
Q 18.15 53.45 12.4 53.45
L 11.25 53.45 -10.8 53.45 -11.55 53.45
Q -17.35 53.45 -16.95 57
L -15.45 72.05
Q -15.15 74.9 -8.75 76.35
L 9.25 76.35 Z"/>
</g>

<g id="dns_earphone_0_Layer0_0_FILL">
<path fill="#FFFFFF" stroke="none" d="
M 3.35 -39.5
Q 8.3 -41.1 13.95 -41.1 15.4 -41.1 16.85 -41 29.35 -37.4 29.2 -6.7 27.7 22.6 16.85 27.3 15.4 27.4 13.95 27.4 7.95 27.4 2.65 25.6 9.75 38.05 19.7 37.65 29.75 37.25 36.95 23.9 44.2 10.55 44.2 -8 44.2 -26.5 37 -39.35 29.95 -52.15 19.8 -51.8 10.3 -51.45 3.35 -39.5
M 13.95 -41.1
Q 8.3 -41.1 3.35 -39.5 -4.2 -37.1 -10.3 -31.05 -20.3 -21.05 -20.3 -6.85 -20.3 7.35 -10.3 17.4 -4.5 23.15 2.65 25.6 7.95 27.4 13.95 27.4 15.4 27.4 16.85 27.3 27.7 22.6 29.2 -6.7 29.35 -37.4 16.85 -41 15.4 -41.1 13.95 -41.1 Z"/>
</g>

<g id="dns_neck_0_Layer0_0_FILL">
<path fill="#FFFFFF" stroke="none" d="
M 10.55 12.8
L 10.55 -12.8 -10.55 -12.8 -10.55 12.8 10.55 12.8 Z"/>
</g>

<g id="zones__head_0_Layer0_0_FILL">
<path fill="#FFFFFF" stroke="none" d="
M 46.1 -54.7
Q 43.65 -57.2 41.2 -59.1 34.85 -64.55 27.6 -67.95 14.95 -74.05 -0.05 -74.45 -27 -73.9 -46.6 -54.7 -54.2 -46.95 -58.9 -38.15 -60.5 -35.3 -61.75 -32.3 -66.5 -21.2 -66.85 -8.35 -67.05 -6.05 -67.05 -3.9 -67.2 -0.6 -66.35 56.9
L -66 59.15
Q -64.9 62.9 -61.75 65.85 -57.55 69.35 -49.75 71.55 -46.8 71.9 -43.6 72.4 -40.2 72.75 -36.9 73.1 -34.65 73.25 -32.15 73.4 -14.15 74.1 -12 74.5 -10.65 74.5 -9.4 74.5 -8.5 74.5 -7.8 74.5 -4.1 74.5 -0.05 74.5
L 24.45 73.95 49.45 71.55
Q 63.7 67.85 65.85 58.85 66.6 56.55 67.15 45.95
L 66.75 -8.35
Q 66.05 -24.55 58.75 -38.15 53.9 -46.95 46.1 -54.7 Z"/>
</g>

<g id="zones_body_0_Layer0_0_FILL">
<path fill="#FFFFFF" stroke="none" d="
M 42.1 -30.2
Q 38 -45.15 23.6 -46.1 -0.4 -44.3 -25.25 -42.5 -35.3 -40.85 -36.35 -31.25 -36.5 -29.1 -36.3 -26.75 -31.8 -0.9 -35.1 26.7 -35.2 28.6 -35.3 30.85 -35.25 31.9 -35.1 32.95 -33.35 41.85 -24 43.6 -2.35 46.75 24.85 48.85 38.25 49.5 41.85 38.95 42.25 37.3 42.55 35.8 49.35 -1.95 42.1 -30.2 Z"/>
</g>

<g id="zones_skirt_0_Layer0_0_FILL">
<path fill="#FFFFFF" stroke="none" d="
M 40.45 -8.6
Q 37.7 -10.95 33.8 -10.95
L -33.8 -10.95
Q -36.1 -10.95 -38.05 -10.05 -38.4 -9.9 -38.6 -9.7 -40.1 -9.15 -41.55 -7.75 -44.7 -4.55 -44.7 0 -44.7 4.55 -41.55 7.75 -38.4 10.95 -33.8 10.95
L 33.8 10.95
Q 38.4 10.95 41.55 7.75 44.7 4.55 44.7 0 44.7 -4.55 41.55 -7.75 41.35 -7.9 41.2 -8.1 40.8 -8.45 40.45 -8.6 Z"/>
</g>

<g id="zones_foot1_0_Layer0_0_FILL">
<path fill="#FFFFFF" stroke="none" d="
M 20.3 -13.65
Q 12.95 -21 2.6 -21 -7.75 -21 -15.1 -13.65 -22.5 -6.25 -22.5 4.1 -22.5 4.4 -22.5 4.7
L 27.7 4.7
Q 27.7 4.4 27.7 4.1 27.7 -6.25 20.3 -13.65 Z"/>
</g>

<g id="dns_shoulder_0_Layer0_0_FILL">
<path fill="#FFFFFF" stroke="none" d="
M -9 -11.8
Q -11.65 -8.95 -11.65 -5.1
L -11.65 5.1
Q -11.65 8.95 -9 11.65 -8.65 11.95 -8.15 12.3 -5.7 14.45 -2.3 14.45
L 2.3 14.45
Q 5.65 14.45 8.15 12.3 8.6 11.95 8.95 11.65 11.65 8.95 11.65 5.1
L 11.65 -5.1
Q 11.65 -8.95 8.95 -11.8 7.95 -12.85 6.7 -13.4 4.75 -14.45 2.3 -14.45
L -2.3 -14.45
Q -4.8 -14.45 -6.7 -13.4 -7.95 -12.85 -9 -11.8 Z"/>
</g>

<g id="dns_foreArm_0_Layer0_0_FILL">
<path fill="#FFFFFF" stroke="none" d="
M 8.9 -26.1
Q 8.25 -26.15 7.7 -26.1
L -8.7 -25.8
Q -19.35 -25.6 -17 0.75
L -14.5 27.5
Q -12.25 38.4 -5.85 38.7 -5.65 38.65 -5.5 38.65
L 6.25 38.4
Q 7.55 38.35 8.7 38.1 13.35 36.2 14.75 27
L 17.15 0.1
Q 18.8 -24.8 8.9 -26.1 Z"/>
</g>

<g id="star_0_Layer0_0_FILL">
<path fill="#FFFFFF" stroke="none" d="
M -0.05 -30.95
L -8.55 -8.15 -32.3 -8.6 -13.15 7.3 -20.45 30.15 -0.6 16.35 20.05 31 13.6 7.45 32.35 -7.5 8.5 -8.25 -0.05 -30.95 Z"/>
</g>

<g id="star_8_0_Layer0_0_FILL">
<path fill="#FFFFFF" stroke="none" d="
M -0.05 -25.8
L -6.85 -7.55 -25.85 -7.9 -10.55 4.85 -16.4 23.15 -0.45 12.1 16.05 23.8 10.9 4.95 25.85 -7 6.8 -7.6 -0.05 -25.8 Z"/>
</g>

<g id="dns_planet_0_Layer0_0_FILL">
<path fill="#FFFFFF" stroke="none" d="
M -52.9 -49.3
Q -62 -40.2 -67.65 -29.7
L -76.75 -30.15
Q -80.05 -23.4 -82.05 -16.15
L -75.25 -9.2
Q -77.15 -0.35 -77.15 9.25 -77.15 43.6 -52.9 67.85 -52.8 67.95 -52.7 68.05
L -50.8 80.85
Q -38.35 90.9 -23.7 95.8
L -14.35 89.85
Q -4.8 92.05 5.65 92.05 39.95 92.05 64.2 67.85 68.85 63.2 72.65 58.1
L 81.8 59.5
Q 89.65 47.9 93.4 34.55
L 86.4 28.45
Q 88.45 19.3 88.45 9.25 88.45 8.45 88.45 7.65
L 96.55 3
Q 95.7 -10.85 91.1 -23.1
L 80.8 -26.1
Q 74.85 -38.7 64.2 -49.3 39.95 -73.55 5.65 -73.55 -28.65 -73.55 -52.9 -49.3
M 53.3 39.7
Q 52.05 38.35 52.4 36.25 52.05 38.35 53.3 39.7 54.75 41.3 57.45 40.9 60.25 40.55 62.7 38.5 65.15 36.4 65.75 33.85 66.5 31.25 65 29.7 64 28.6 62.4 28.45 64 28.6 65 29.7 66.5 31.25 65.75 33.85 65.15 36.4 62.7 38.5 60.25 40.55 57.45 40.9 54.75 41.3 53.3 39.7
M 12.35 68.8
Q 11.05 64.9 15.3 60.35 11.05 64.9 12.35 68.8 13.7 72.9 20.7 73.75 27.75 74.6 36.35 71.6 44.85 68.6 49.95 63.65 55 58.6 53.6 54.5 52.25 50.35 45.2 49.55 43.4 49.3 41.5 49.3 43.4 49.3 45.2 49.55 52.25 50.35 53.6 54.5 55 58.6 49.95 63.65 44.85 68.6 36.35 71.6 27.75 74.6 20.7 73.75 13.7 72.9 12.35 68.8 Z"/>
</g>

<g id="star_6_0_Layer0_0_FILL">
<path fill="#FFFFFF" stroke="none" d="
M -0.05 -18
L -4.95 -4.75 -18.75 -5 -7.65 4.25 -11.9 17.5 -0.3 9.5 11.65 18 7.9 4.35 18.75 -4.35 4.9 -4.75 -0.05 -18 Z"/>
</g>

<g id="dns_earband_0_Layer0_0_FILL">
<path fill="#E17107" stroke="none" d="
M 53 -53.65
L 42.85 -62.3 34.95 -67.45 34.7 -67.55 34.5 -67.7 26.6 -71.5 26.55 -71.55 26.3 -71.6 26.3 -71.65 19 -73.8 18.75 -73.9 15.45 -74.5 8.25 -75
Q 3.65 -75.1 -0.4 -74.5 -4.3 -74 -8.75 -72.95
L -16.8 -70.55
Q -20.35 -69.3 -24.45 -67.6
L -27.25 -66.35 -27.7 -66.1 -28.2 -65.9 -31.8 -64.1
Q -35.05 -62.45 -38.9 -60.3
L -38.9 -60.25 -46.8 -54.45
Q -50.5 -51.45 -53.75 -48.5 -57.2 -45.35 -60.35 -41.9
L -63.85 -37.8 -64.05 -37.6 -64.2 -37.35 -67.45 -32.95 -67.75 -32.4 -68.45 -31.4 -71.45 -25.95 -71.55 -25.8 -71.6 -25.65 -72.25 -24.2 -72.35 -24.05 -72.4 -23.9 -73.15 -22.15 -74.8 -17.05 -74.8 -16.9 -75.15 -15.65 -76 -10.05 -76.15 -3.6 -75 7.1 -71.95 19.7 -68.4 30.05
Q -66.7 34.6 -65.05 38.3
L -49.1 69.55
Q -48.05 71.3 -46.05 71.85 -44 72.35 -42.25 71.35 -40.55 70.4 -40 68.55 -39.4 66.75 -40.15 65
L -52.85 33.5
Q -54.1 30.1 -55.45 25.6
L -58 16.65 -58.1 16.15 -58.2 15.9 -60.35 4.8 -60.35 4.55 -60.4 4.3 -60.9 -4.65 -60.75 -7.7 -60.65 -8.35 -60.65 -8.55 -60.6 -8.75 -60.45 -10 -59.75 -12.85 -59.75 -12.95 -59.7 -13.05 -59.4 -14.05 -57.4 -18.7 -57.4 -18.8 -57.3 -18.9 -56.7 -20.05 -54.25 -23.95 -53.95 -24.3 -53.7 -24.7 -51.65 -27.35 -51.55 -27.5 -49.8 -29.5 -49.5 -29.9 -48.5 -30.95
Q -46 -33.65 -42.85 -36.5 -39.45 -39.45 -36.7 -41.7
L -30.55 -46.3
Q -30.649609375 -46.2103515625 -30.75 -46.15
L -30.1 -46.6 -30.55 -46.3
Q -27.637890625 -48.00703125 -24.4 -49.65 -22.7 -50.55 -17.95 -52.75 -14.65 -54.2 -11.45 -55.4
L -9.35 -56.15 -8.95 -56.25 -8.15 -56.55 -4.85 -57.5
Q -1.25 -58.5 1.75 -58.9
L 2.15 -59 3.4 -59.15 3.6 -59.15 3.8 -59.2 6.25 -59.4 6.45 -59.45 11.9 -59.45 14.65 -59.15 14.85 -59.15 15.05 -59.1 15.85 -59 18.55 -58.4 18.7 -58.4 21.15 -57.65 21.2 -57.65 21.4 -57.55 22.55 -57.15 22.7 -57.05 23.1 -56.95 26.6 -55.45 26.95 -55.25 28.15 -54.7 34.9 -50.85 44.15 -44 44.45 -43.7
Q 45.7 -42.7 47.15 -41.35
L 51.75 -36.95 59.15 -28.8 64.4 -22.35 64.45 -22.25
Q 65.75 -20.65 67.8 -20.4 69.85 -20.15 71.45 -21.45 72.95 -22.6 73.3 -24.45 73.65 -26.3 72.65 -27.9
L 63.9 -41.1
Q 61.5 -44.3 58.85 -47.35
L 53 -53.65 Z"/>
</g>

<path id="dns_flagLight_0_Layer0_0_1_STROKES" stroke="#E17107" stroke-width="5" stroke-linejoin="round" stroke-linecap="round" fill="none" d="
M 11.25 53.45
L 12.4 53.45
Q 18.15 53.45 17.8 57
L 16.3 72.05
Q 15.95 74.9 9.25 76.35
L 7.8 120.35 -7.3 120.35 -8.75 76.35
Q -15.15 74.9 -15.45 72.05
L -16.95 57
Q -17.35 53.45 -11.55 53.45
L -10.8 53.45 -6.85 -46.35 7.1 -46.35 11.25 53.45 -10.8 53.45
M 9.25 76.35
L -8.75 76.35"/>

<path id="dns_eye1_0_Layer0_0_1_STROKES" stroke="#E17107" stroke-width="6" stroke-linejoin="round" stroke-linecap="round" fill="none" d="
M -64.4 10.1
L 21.5 -2.6"/>

<path id="dns_antenna_0_Layer0_0_1_STROKES" stroke="#E17107" stroke-width="5" stroke-linejoin="round" stroke-linecap="round" fill="none" d="
M 8.15 -5
L 7.8 19.55
M -5.85 -35.05
L -8.15 35.05"/>

<path id="dns_earphone_0_Layer0_0_1_STROKES" stroke="#E17107" stroke-width="6" stroke-linejoin="round" stroke-linecap="round" fill="none" d="
M 2.65 25.6
Q 7.95 27.4 13.95 27.4 15.4 27.4 16.85 27.3 27.7 22.6 29.2 -6.7 29.35 -37.4 16.85 -41 15.4 -41.1 13.95 -41.1 8.3 -41.1 3.35 -39.5 -4.2 -37.1 -10.3 -31.05 -20.3 -21.05 -20.3 -6.85 -20.3 7.35 -10.3 17.4 -4.5 23.15 2.65 25.6 9.75 38.05 19.7 37.65 29.75 37.25 36.95 23.9 44.2 10.55 44.2 -8 44.2 -26.5 37 -39.35 29.95 -52.15 19.8 -51.8 10.3 -51.45 3.35 -39.5"/>

<path id="dns_neck_0_Layer0_0_1_STROKES" stroke="#E17107" stroke-width="6" stroke-linejoin="round" stroke-linecap="round" fill="none" d="
M 10.55 -12.8
L 10.55 12.8
M -10.55 12.8
L -10.55 -12.8"/>

<path id="dns_leg1_0_Layer0_0_1_STROKES" stroke="#E17107" stroke-width="6" stroke-linejoin="round" stroke-linecap="round" fill="none" d="
M -1.95 17.25
L 13.25 -17.25"/>

<path id="zones__head_0_Layer0_0_1_STROKES" stroke="#E17107" stroke-width="6" stroke-linejoin="round" stroke-linecap="round" fill="none" d="
M 67.15 45.95
L 66.75 -8.35
Q 66.05 -24.55 58.75 -38.15 53.9 -46.95 46.1 -54.7 43.65 -57.2 41.2 -59.1 34.85 -64.55 27.6 -67.95 14.95 -74.05 -0.05 -74.45 -27 -73.9 -46.6 -54.7 -54.2 -46.95 -58.9 -38.15 -60.5 -35.3 -61.75 -32.3 -66.5 -21.2 -66.85 -8.35 -67.05 -6.05 -67.05 -3.9 -67.2 -0.6 -66.35 56.9
L -66 59.15
Q -64.9 62.9 -61.75 65.85 -57.55 69.35 -49.75 71.55 -46.8 71.9 -43.6 72.4 -40.2 72.75 -36.9 73.1 -34.65 73.25 -32.15 73.4 -14.15 74.1 -12 74.5 -10.65 74.5 -9.4 74.5 -8.5 74.5 -7.8 74.5 -4.1 74.5 -0.05 74.5
L 24.45 73.95 49.45 71.55
Q 63.7 67.85 65.85 58.85 66.6 56.55 67.15 45.95 Z"/>

<path id="zones_body_0_Layer0_0_1_STROKES" stroke="#E17107" stroke-width="6" stroke-linejoin="round" stroke-linecap="round" fill="none" d="
M -35.1 26.7
Q -31.8 -0.9 -36.3 -26.75 -36.5 -29.1 -36.35 -31.25 -35.3 -40.85 -25.25 -42.5 -0.4 -44.3 23.6 -46.1 38 -45.15 42.1 -30.2 49.35 -1.95 42.55 35.8 42.25 37.3 41.85 38.95 38.25 49.5 24.85 48.85 -2.35 46.75 -24 43.6 -33.35 41.85 -35.1 32.95 -35.25 31.9 -35.3 30.85 -35.4 29.8 -35.35 28.7 -35.2 27.6 -35.1 26.7 -35.2 28.6 -35.3 30.85"/>

<path id="zones_skirt_0_Layer0_0_1_STROKES" stroke="#E17107" stroke-width="6" stroke-linejoin="round" stroke-linecap="round" fill="none" d="
M 40.45 -8.6
Q 40.8 -8.45 41.2 -8.1 41.35 -7.9 41.55 -7.75 44.7 -4.55 44.7 0 44.7 4.55 41.55 7.75 38.4 10.95 33.8 10.95
L -33.8 10.95
Q -38.4 10.95 -41.55 7.75 -44.7 4.55 -44.7 0 -44.7 -4.55 -41.55 -7.75 -40.1 -9.15 -38.6 -9.7 -38.4 -9.9 -38.05 -10.05 -36.1 -10.95 -33.8 -10.95
L 33.8 -10.95
Q 37.7 -10.95 40.45 -8.6 Z"/>

<path id="zones_chestIcon_0_Layer0_0_1_STROKES" stroke="#E17107" stroke-width="5" stroke-linejoin="round" stroke-linecap="round" fill="none" d="
M 12.85 1.2
Q 12.5 5.35 9.35 7.5 6.5 9.95 2.35 9.2 -1.35 8.8 -3.8 5.6 -6.3 2.7 -5.85 -1.25 -5.3 -5.15 -2.35 -7.55 0.75 -9.95 4.45 -9.45 8.6 -8.8 10.8 -5.85 13.5 -2.7 12.85 1.2 Z
M 21.6 2.95
Q 20.75 12.05 13.5 17.25 6.5 22.75 -2.55 21.55 -11.25 20.3 -17 13.2 -22.4 6.3 -21.55 -2.7 -20.5 -11.4 -13.7 -17 -6.65 -22.75 2.15 -21.5 11.25 -20.3 16.8 -13.2 22.6 -5.85 21.6 2.95 Z"/>

<path id="zones_foot1_0_Layer0_0_1_STROKES" stroke="#E17107" stroke-width="6" stroke-linejoin="round" stroke-linecap="round" fill="none" d="
M 27.7 4.1
Q 27.7 4.4 27.7 4.7
L -22.5 4.7
Q -22.5 4.4 -22.5 4.1 -22.5 -6.25 -15.1 -13.65 -7.75 -21 2.6 -21 12.95 -21 20.3 -13.65 27.7 -6.25 27.7 4.1 Z"/>

<path id="dns_shoulder_0_Layer0_0_1_STROKES" stroke="#E17107" stroke-width="6" stroke-linejoin="round" stroke-linecap="round" fill="none" d="
M -2.3 14.45
L 2.3 14.45
Q 5.65 14.45 8.15 12.3 8.6 11.95 8.95 11.65 11.65 8.95 11.65 5.1
L 11.65 -5.1
Q 11.65 -8.95 8.95 -11.8 7.95 -12.85 6.7 -13.4 4.75 -14.45 2.3 -14.45
L -2.3 -14.45
Q -4.8 -14.45 -6.7 -13.4 -7.95 -12.85 -9 -11.8 -11.65 -8.95 -11.65 -5.1
L -11.65 5.1
Q -11.65 8.95 -9 11.65 -8.65 11.95 -8.15 12.3 -5.7 14.45 -2.3 14.45 Z"/>

<path id="dns_foreArm_0_Layer0_0_1_STROKES" stroke="#E17107" stroke-width="6" stroke-linejoin="round" stroke-linecap="round" fill="none" d="
M -5.5 38.65
L 6.25 38.4
Q 7.55 38.35 8.7 38.1 13.35 36.2 14.75 27
L 17.15 0.1
Q 18.8 -24.8 8.9 -26.1 8.25 -26.15 7.7 -26.1
L -8.7 -25.8
Q -19.35 -25.6 -17 0.75
L -14.5 27.5
Q -12.25 38.4 -5.85 38.7 -5.65 38.65 -5.5 38.65 Z"/>

<path id="dns_eye_0_Layer0_0_1_STROKES" stroke="#E17107" stroke-width="5" stroke-linejoin="round" stroke-linecap="round" fill="none" d="
M -15.15 -3.25
Q -16.25 3.1 -12.6 8.35 -8.95 13.85 -2.65 15.1 3.55 16.45 8.9 12.95 14.05 9.5 15.15 3.15 16.35 -3.1 12.85 -8.45 9.15 -13.75 3 -15.15 -3.35 -16.4 -8.65 -13 -13.95 -9.5 -15.15 -3.25 Z"/>

<path id="zones_mouth_0_Layer0_0_1_STROKES" stroke="#E17107" stroke-width="5" stroke-linejoin="round" stroke-linecap="round" fill="none" d="
M -55.9 -9.55
Q -24.7 10.65 26.8 9.8 28.3 9.8 29.85 9.75"/>

<path id="dns_fingers1_0_Layer0_0_1_STROKES" stroke="#E17107" stroke-width="10" stroke-linejoin="round" stroke-linecap="round" fill="none" d="
M -42.55 -14.3
L -18.4 -12
M -46.35 -28.25
L -17.35 -24.45
M -38.8 0.4
L -23.7 3.4"/>

<path id="dns_fingers2_0_Layer0_0_1_STROKES" stroke="#E17107" stroke-width="6" stroke-linejoin="round" stroke-linecap="round" fill="none" d="
M -44.15 -4.95
L -35.35 -3.8
M -44.35 -20.35
L -33.65 -21.75
M -45.35 -13.1
L -34 -12.75"/>

<path id="star_0_Layer0_0_1_STROKES" stroke="#E17107" stroke-width="4" stroke-linejoin="round" stroke-linecap="round" fill="none" d="
M 20.05 31
L -0.6 16.35 -20.45 30.15 -13.15 7.3 -32.3 -8.6 -8.55 -8.15 -0.05 -30.95 8.5 -8.25 32.35 -7.5 13.6 7.45 20.05 31 Z"/>

<path id="star_8_0_Layer0_0_1_STROKES" stroke="#E17107" stroke-width="4" stroke-linejoin="round" stroke-linecap="round" fill="none" d="
M 16.05 23.8
L -0.45 12.1 -16.4 23.15 -10.55 4.85 -25.85 -7.9 -6.85 -7.55 -0.05 -25.8 6.8 -7.6 25.85 -7 10.9 4.95 16.05 23.8 Z"/>

<path id="dns_planet_0_Layer0_0_1_STROKES" stroke="#E17107" stroke-width="8" stroke-linejoin="round" stroke-linecap="round" fill="none" d="
M 88.45 9.25
Q 88.45 19.3 86.4 28.45
L 93.4 34.55
Q 89.65 47.9 81.8 59.5
L 72.65 58.1
Q 68.85 63.2 64.2 67.85 39.95 92.05 5.65 92.05 -4.8 92.05 -14.35 89.85
L -23.7 95.8
Q -38.35 90.9 -50.8 80.85
L -52.7 68.05
Q -52.8 67.95 -52.9 67.85 -77.15 43.6 -77.15 9.25 -77.15 -0.35 -75.25 -9.2
L -82.05 -16.15
Q -80.05 -23.4 -76.75 -30.15
L -67.65 -29.7
Q -62 -40.2 -52.9 -49.3 -28.65 -73.55 5.65 -73.55 39.95 -73.55 64.2 -49.3 74.85 -38.7 80.8 -26.1
L 91.1 -23.1
Q 95.7 -10.85 96.55 3
L 88.45 7.65
Q 88.45 8.45 88.45 9.25 Z"/>

<path id="dns_planet_0_Layer0_0_2_STROKES" stroke="#E17107" stroke-width="4" stroke-linejoin="round" stroke-linecap="round" fill="none" d="
M 41.5 49.3
Q 43.4 49.3 45.2 49.55 52.25 50.35 53.6 54.5 55 58.6 49.95 63.65 44.85 68.6 36.35 71.6 27.75 74.6 20.7 73.75 13.7 72.9 12.35 68.8 11.05 64.9 15.3 60.35"/>

<path id="dns_planet_0_Layer0_0_3_STROKES" stroke="#E17107" stroke-width="3" stroke-linejoin="round" stroke-linecap="round" fill="none" d="
M 62.4 28.45
Q 64 28.6 65 29.7 66.5 31.25 65.75 33.85 65.15 36.4 62.7 38.5 60.25 40.55 57.45 40.9 54.75 41.3 53.3 39.7 52.05 38.35 52.4 36.25"/>

<path id="star_6_0_Layer0_0_1_STROKES" stroke="#E17107" stroke-width="3" stroke-linejoin="round" stroke-linecap="round" fill="none" d="
M 11.65 18
L -0.3 9.5 -11.9 17.5 -7.65 4.25 -18.75 -5 -4.95 -4.75 -0.05 -18 4.9 -4.75 18.75 -4.35 7.9 4.35 11.65 18 Z"/>
</defs>

<g transform="matrix( 0.9999847412109375, 0, 0, 0.9999847412109375, 227.25,256.6) ">
<g transform="matrix( 0.9443817138671875, 0.32568359375, -0.32568359375, 0.9443817138671875, 133.35,-202.2) ">
<g transform="matrix( 1, 0, 0, 1, 0,0) ">
<use xlink:href="#dns_flagLight_0_Layer0_0_FILL"/>

<use xlink:href="#dns_flagLight_0_Layer0_0_1_STROKES"/>
</g>
</g>

<g transform="matrix( 0.956390380859375, -0.28887939453125, 0.28887939453125, 0.956390380859375, 28.8,-77.75) ">
<g transform="matrix( 1, 0, 0, 1, 0,0) ">
<use xlink:href="#dns_eye1_0_Layer0_0_1_STROKES"/>
</g>
</g>

<g transform="matrix( 0.73468017578125, -0.67596435546875, 0.67596435546875, 0.73468017578125, -142.05,-211.9) ">
<g transform="matrix( 1, 0, 0, 1, 0,0) ">
<use xlink:href="#dns_antenna_0_Layer0_0_1_STROKES"/>
</g>
</g>

<g transform="matrix( -0.942657470703125, 0.3305816650390625, 0.3305816650390625, 0.942657470703125, -12.3,-164.1) ">
<g transform="matrix( 1, 0, 0, 1, 0,0) ">
<use xlink:href="#dns_earphone_0_Layer0_0_FILL"/>

<use xlink:href="#dns_earphone_0_Layer0_0_1_STROKES"/>
</g>
</g>

<g transform="matrix( 0.928863525390625, -0.3673553466796875, 0.3673553466796875, 0.928863525390625, -40.15,-74.2) ">
<g transform="matrix( 1, 0, 0, 1, 0,0) ">
<use xlink:href="#dns_neck_0_Layer0_0_FILL"/>

<use xlink:href="#dns_neck_0_Layer0_0_1_STROKES"/>
</g>
</g>

<g transform="matrix( 0.993072509765625, -0.1141204833984375, 0.1141204833984375, 0.993072509765625, 3.05,43.7) ">
<g transform="matrix( 1, 0, 0, 1, 0,0) ">
<use xlink:href="#dns_leg1_0_Layer0_0_1_STROKES"/>
</g>
</g>

<g transform="matrix( 0.993072509765625, -0.1141204833984375, 0.1141204833984375, 0.993072509765625, -50.45,46.35) ">
<g transform="matrix( 1, 0, 0, 1, 0,0) ">
<use xlink:href="#dns_leg1_0_Layer0_0_1_STROKES"/>
</g>
</g>

<g transform="matrix( 0.8830718994140625, -0.4662933349609375, 0.4662933349609375, 0.8830718994140625, -72.15,-145.3) ">
<g transform="matrix( 1, 0, 0, 1, 0,0) ">
<use xlink:href="#zones__head_0_Layer0_0_FILL"/>

<use xlink:href="#zones__head_0_Layer0_0_1_STROKES"/>
</g>
</g>

<g transform="matrix( 0.961334228515625, -0.272125244140625, 0.272125244140625, 0.961334228515625, -25.8,-24.25) ">
<g transform="matrix( 1, 0, 0, 1, 0,0) ">
<use xlink:href="#zones_body_0_Layer0_0_FILL"/>

<use xlink:href="#zones_body_0_Layer0_0_1_STROKES"/>
</g>
</g>

<g transform="matrix( 0.978179931640625, -0.204437255859375, 0.204437255859375, 0.978179931640625, -12.9,17.45) ">
<g transform="matrix( 1, 0, 0, 1, 0,0) ">
<use xlink:href="#zones_skirt_0_Layer0_0_FILL"/>

<use xlink:href="#zones_skirt_0_Layer0_0_1_STROKES"/>
</g>
</g>

<g transform="matrix( 0.623077392578125, -0.2590789794921875, 0.3834686279296875, 0.922271728515625, -5.5,-37.75) ">
<g transform="matrix( 1, 0, 0, 1, 0,0) ">
<use xlink:href="#zones_chestIcon_0_Layer0_0_1_STROKES"/>
</g>
</g>

<g transform="matrix( 0.951080322265625, -0.3057708740234375, 0.3057708740234375, 0.951080322265625, -58.7,87.85) ">
<g transform="matrix( 1, 0, 0, 1, 0,0) ">
<use xlink:href="#zones_foot1_0_Layer0_0_FILL"/>

<use xlink:href="#zones_foot1_0_Layer0_0_1_STROKES"/>
</g>
</g>

<g transform="matrix( 0.9990692138671875, 0.0394744873046875, -0.0394744873046875, 0.9990692138671875, 5.7,79) ">
<g transform="matrix( 1, 0, 0, 1, 0,0) ">
<use xlink:href="#zones_foot1_0_Layer0_0_FILL"/>

<use xlink:href="#zones_foot1_0_Layer0_0_1_STROKES"/>
</g>
</g>

<g transform="matrix( 0.933746337890625, -0.3548583984375, 0.3548583984375, 0.933746337890625, -47.55,-40) ">
<g transform="matrix( 1, 0, 0, 1, 0,0) ">
<use xlink:href="#dns_shoulder_0_Layer0_0_FILL"/>

<use xlink:href="#dns_shoulder_0_Layer0_0_1_STROKES"/>
</g>
</g>

<g transform="matrix( 0.3592376708984375, 0.9320220947265625, -0.9320220947265625, 0.3592376708984375, 73.15,-96.3) ">
<g transform="matrix( 1, 0, 0, 1, 0,0) ">
<use xlink:href="#dns_foreArm_0_Layer0_0_FILL"/>

<use xlink:href="#dns_foreArm_0_Layer0_0_1_STROKES"/>
</g>
</g>

<g transform="matrix( 0.9808197021484375, 0.191558837890625, -0.191558837890625, 0.9808197021484375, 19.35,-38.6) ">
<g transform="matrix( 1, 0, 0, 1, 0,0) ">
<use xlink:href="#dns_eye1_0_Layer0_0_1_STROKES"/>
</g>
</g>

<g transform="matrix( 0.69183349609375, 0.719757080078125, -0.719757080078125, 0.69183349609375, 176.85,-102.2) ">
<g transform="matrix( 1, 0, 0, 1, 0,0) ">
<use xlink:href="#dns_flagLight_0_Layer0_0_FILL"/>

<use xlink:href="#dns_flagLight_0_Layer0_0_1_STROKES"/>
</g>
</g>

<g transform="matrix( -0.0356292724609375, 0.9992218017578125, -0.9992218017578125, -0.0356292724609375, 70.95,-37.4) ">
<g transform="matrix( 1, 0, 0, 1, 0,0) ">
<use xlink:href="#dns_foreArm_0_Layer0_0_FILL"/>

<use xlink:href="#dns_foreArm_0_Layer0_0_1_STROKES"/>
</g>
</g>

<g transform="matrix( 0.6897125244140625, -0.38360595703125, 0.485382080078125, 0.8726959228515625, -31.8,-176.55) ">
<g transform="matrix( 1, 0, 0, 1, 0,0) ">
<use xlink:href="#dns_eye_0_Layer0_0_1_STROKES"/>
</g>
</g>

<g transform="matrix( 0.8726806640625, -0.4853668212890625, 0.4853668212890625, 0.8726806640625, -71.75,-154.2) ">
<g transform="matrix( 1, 0, 0, 1, 0,0) ">
<use xlink:href="#dns_eye_0_Layer0_0_1_STROKES"/>
</g>
</g>

<g transform="matrix( 0.9119873046875, -0.4071502685546875, 0.4071502685546875, 0.9119873046875, -133.3,-103.4) ">
<g transform="matrix( 1, 0, 0, 1, 0,0) ">
<use xlink:href="#dns_earphone_0_Layer0_0_FILL"/>

<use xlink:href="#dns_earphone_0_Layer0_0_1_STROKES"/>
</g>
</g>

<g transform="matrix( 0.81182861328125, -0.5811920166015625, 0.5811920166015625, 0.81182861328125, -33.5,-142.9) ">
<g transform="matrix( 1, 0, 0, 1, 0,0) ">
<use xlink:href="#zones_mouth_0_Layer0_0_1_STROKES"/>
</g>
</g>

<g transform="matrix( 0.6377410888671875, 0.114471435546875, -0.114471435546875, 0.6377410888671875, 125.8,-19.05) ">
<g transform="matrix( 1, 0, 0, 1, 0,0) ">
<use xlink:href="#dns_fingers1_0_Layer0_0_1_STROKES"/>
</g>
</g>

<g transform="matrix( 0.9999542236328125, 0.004364013671875, -0.004364013671875, 0.9999542236328125, 147.8,-96.25) ">
<g transform="matrix( 1, 0, 0, 1, 0,0) ">
<use xlink:href="#dns_fingers2_0_Layer0_0_1_STROKES"/>
</g>
</g>

<g transform="matrix( 0.9999847412109375, 0, 0, 0.9999847412109375, -190.2,91.15) ">
<g transform="matrix( 1, 0, 0, 1, 0,0) ">
<use xlink:href="#star_0_Layer0_0_FILL"/>

<use xlink:href="#star_0_Layer0_0_1_STROKES"/>
</g>
</g>

<g transform="matrix( 0.9999847412109375, 0, 0, 0.9999847412109375, 143.75,227.75) ">
<g transform="matrix( 1, 0, 0, 1, 0,0) ">
<use xlink:href="#star_8_0_Layer0_0_FILL"/>

<use xlink:href="#star_8_0_Layer0_0_1_STROKES"/>
</g>
</g>

<g transform="matrix( 0.9999847412109375, 0, 0, 0.9999847412109375, -17.65,140.4) ">
<g transform="matrix( 1, 0, 0, 1, 0,0) ">
<use xlink:href="#dns_planet_0_Layer0_0_FILL"/>

<use xlink:href="#dns_planet_0_Layer0_0_1_STROKES"/>

<use xlink:href="#dns_planet_0_Layer0_0_2_STROKES"/>

<use xlink:href="#dns_planet_0_Layer0_0_3_STROKES"/>
</g>
</g>

<g transform="matrix( 0.9999847412109375, 0, 0, 0.9999847412109375, -121.05,50.8) ">
<g transform="matrix( 1, 0, 0, 1, 0,0) ">
<use xlink:href="#star_6_0_Layer0_0_FILL"/>

<use xlink:href="#star_6_0_Layer0_0_1_STROKES"/>
</g>
</g>

<g transform="matrix( 1, 0, 0, 1, -98.75,-176.2) ">
<g transform="matrix( 1, 0, 0, 1, 0,0) ">
<use xlink:href="#dns_earband_0_Layer0_0_FILL"/>
</g>
</g>
</g>
</svg>
