
<svg xmlns="http://www.w3.org/2000/svg" version="1.1" xmlns:xlink="http://www.w3.org/1999/xlink" preserveAspectRatio="none" x="0px" y="0px" width="450px" height="420px" viewBox="0 0 450 420">
<defs>
<g id="pic_shoulder_0_Layer0_0_FILL">
<path fill="#FFFFFF" stroke="none" d="
M -9 -11.8
Q -11.65 -8.95 -11.65 -5.1
L -11.65 5.1
Q -11.65 8.95 -9 11.65 -8.65 11.95 -8.15 12.3 -5.7 14.45 -2.3 14.45
L 2.3 14.45
Q 5.65 14.45 8.15 12.3 8.6 11.95 8.95 11.65 11.65 8.95 11.65 5.1
L 11.65 -5.1
Q 11.65 -8.95 8.95 -11.8 7.95 -12.85 6.7 -13.4 4.75 -14.45 2.3 -14.45
L -2.3 -14.45
Q -4.8 -14.45 -6.7 -13.4 -7.95 -12.85 -9 -11.8 Z"/>
</g>

<g id="pic_neck_0_Layer0_0_FILL">
<path fill="#FFFFFF" stroke="none" d="
M 10.55 -12.8
L -10.55 -12.8 -10.55 12.8 10.55 12.8 10.55 -12.8 Z"/>
</g>

<g id="pic_foot2_0_Layer1_0_FILL">
<path fill="#FFFFFF" stroke="none" d="
M 20.55 -6.7
Q 11.2 -15.2 0 -15.2 -12.1 -15.2 -20.55 -6.7 -26 -1.2 -28.3 9.1 -29.45 14.25 -29.5 18.35 -29.05 22.05 -21.05 24.7 -12.5 27.55 -0.45 27.55 11.6 27.55 20.1 24.7 28.1 22.05 28.55 18.35 29.15 14.35 28.45 9.3 27 -0.85 20.55 -6.7 Z"/>
</g>

<g id="star_0_Layer0_0_FILL">
<path fill="#FFFFFF" stroke="none" d="
M -0.05 -30.95
L -8.55 -8.15 -32.3 -8.6 -13.15 7.3 -20.45 30.15 -0.6 16.35 20.05 31 13.6 7.45 32.35 -7.5 8.5 -8.25 -0.05 -30.95 Z"/>
</g>

<g id="pic_body_0_Layer0_0_FILL">
<path fill="#FFFFFF" stroke="none" d="
M 42.9 -33.4
Q 43.3 -35.9 43.2 -37.65 42.9 -45.85 33.25 -46.95 9.4 -49.7 -17.1 -52.7 -33.45 -54.55 -36.7 -39.85 -41.6 -18.95 -41.6 1.4 -41.6 21.7 -36.7 40.7 -36.55 42.25 -35.75 43.8 -31.35 53.85 -17.25 52.4 9.4 49.45 33.25 46.95 43 45.75 43.45 37.75 43.6 36.7 43.45 35.7 37.65 1 42.9 -33.4 Z"/>
</g>

<g id="pic_rim_0_Layer0_0_FILL">
<path fill="#FFFFFF" stroke="none" d="
M 43.05 -22.3
Q 46.2 -25.85 46.25 -30.3 46.2 -34.85 43.05 -37.7 42.8 -37.8 42.7 -38 42.35 -38.25 42 -38.4 39.05 -40.3 35.35 -39.45 19.9 -33 -5.15 -35.95 -26.55 -38.55 -41.6 -45.55 -45.25 -47.2 -49.3 -43.75 -52.4 -40.9 -52.5 -36.35 -52.4 -31.85 -49.3 -28.35 -48 -26.85 -45.7 -25.5 -42.95 -24 -41.6 -23.25 -27.75 -15.55 -4.9 -13.7 18.95 -11.7 35.35 -17.85 39.9 -18.75 43.05 -22.3 Z"/>
</g>

<g id="pic_head_0_Layer0_0_FILL">
<path fill="#FFFFFF" stroke="none" d="
M 49.65 -59.35
Q 47.25 -62 44.8 -63.95 38.7 -69.7 31.5 -73.2 18.9 -79.5 3.75 -79.65 -23.5 -78.65 -44.1 -57.75 -52.05 -49.3 -57.2 -39.8 -58.95 -36.75 -60.3 -33.6 -65.6 -21.6 -66.5 -7.85 -66.75 -5.45 -66.85 -3.15 -67.15 0.4 -68.6 61.8
L -68.3 64.2
Q -67.4 68.25 -64.3 71.35 -60.15 75.05 -52.4 77.15 -49.4 77.5 -46.25 77.95 -42.8 78.3 -39.45 78.65 -37.15 78.75 -34.7 78.9 -16.55 79.35 -14.4 79.65 -13 79.7 -11.75 79.65 -10.85 79.65 -10.1 79.65 -6.4 79.55 -2.35 79.5
L 22.5 78.5 47.9 75.45
Q 62.45 71.25 65 61.6 65.75 59.15 66.75 47.8
L 68.6 -10.15
Q 68.6 -27.5 61.8 -41.9 57.15 -51.2 49.65 -59.35 Z"/>
</g>

<g id="cameraButton_0_Layer0_0_FILL">
<path fill="#FFFFFF" stroke="none" d="
M 680.05 1538.75
L 675.95 1538.75
Q 673.45 1538.75 671.7 1540.5 669.95 1542.25 669.95 1544.75
L 669.95 1557.55
Q 669.95 1560.05 671.7 1561.8 673.45 1563.55 675.95 1563.55
L 680.05 1563.55
Q 682.55 1563.55 684.3 1561.8 686.05 1560.05 686.05 1557.55
L 686.05 1544.75
Q 686.05 1542.25 684.3 1540.5 682.55 1538.75 680.05 1538.75 Z"/>
</g>

<g id="cameraBase_0_Layer0_0_FILL">
<path fill="#FFFFFF" stroke="none" d="
M -51.9 12.05
L -8.1 56.55 16.75 35 -32.25 -15.8 -51.9 12.05
M 51.95 -12.85
L 10.6 -56.5 -32.25 -15.8 16.75 35 51.95 -12.85 Z"/>
</g>

<g id="cameraLens_0_Layer0_0_FILL">
<path fill="#FFFFFF" stroke="none" d="
M -10.15 -20.4
Q -9.3 -23.55 -7.3 -26.3
L -29.9 1.2
Q -30.2 1.4 -30.5 1.75 -35.2 6.85 -34.3 14.45 -33.3 22 -27.2 27.6 -21.1 33.25 -13.45 33.65 -6.3 34.05 -1.65 29.55
L 25.7 8.6
Q 25.75 8.5 25.75 8.45 21 11.25 14.75 10.85 5.45 10.35 -1.9 3.5 -9.35 -3.3 -10.55 -12.5 -11.1 -16.8 -10.15 -20.4
M 17.6 -15.55
Q 10.15 -22.35 0.85 -22.85 -5.45 -23.2 -10.15 -20.4 -11.1 -16.8 -10.55 -12.5 -9.35 -3.3 -1.9 3.5 5.45 10.35 14.75 10.85 21 11.25 25.75 8.45 26.7 4.8 26.15 0.55 24.95 -8.7 17.6 -15.55
M 0.85 -22.85
Q 10.15 -22.35 17.6 -15.55 24.95 -8.7 26.15 0.55 26.7 4.8 25.75 8.45 26.2 8.2 26.6 7.9 26.85 7.7 27.15 7.5 28.45 6.5 29.7 5.15 35.45 -1 34.3 -10.2 33.05 -19.45 25.7 -26.3 18.35 -33.1 9.05 -33.6 -0.25 -34.1 -5.95 -27.85 -6.05 -27.8 -6.15 -27.7 -6.75 -27.05 -7.3 -26.3 -9.3 -23.55 -10.15 -20.4 -5.45 -23.2 0.85 -22.85 Z"/>
</g>

<g id="pic_foot1_0_Layer1_0_FILL">
<path fill="#FFFFFF" stroke="none" d="
M -0.1 -11.85
Q -12.15 -11.85 -20.65 -3.35 -29.15 5.15 -29.15 17.2 -29.15 17.9 -29.15 18.6
L 28.95 18.6
Q 28.95 17.9 28.95 17.2 28.95 5.15 20.45 -3.35 11.95 -11.85 -0.1 -11.85 Z"/>
</g>

<g id="pic_foot1_0_Layer0_0_FILL">
<path fill="#FFFFFF" stroke="none" d="
M 20 28.05
Q 28 25.4 28.45 21.7 28.5 21.5 28.5 21.25 28.5 17.3 20 14.45 11.5 11.65 -0.55 11.65 -12.6 11.65 -21.15 14.45 -29.6 17.3 -29.6 21.25 -29.6 21.5 -29.6 21.7 -29.15 25.4 -21.15 28.05 -12.6 30.9 -0.55 30.9 11.5 30.9 20 28.05 Z"/>
</g>

<g id="pic_foream_0_Layer0_0_FILL">
<path fill="#FFFFFF" stroke="none" d="
M -7.75 -28.1
Q -18.7 -28.4 -17.3 -1.7
L -15.75 25.1
Q -13.8 36.05 -7.45 36.55 -7.3 36.55 -7.1 36.55
L 4.6 36.85
Q 5.85 36.85 7.05 36.55 11.75 34.95 13.55 25.85
L 17.15 -0.8
Q 19.95 -25.7 9.95 -27.6 9.35 -27.6 8.8 -27.6
L -7.75 -28.1 Z"/>
</g>

<g id="star_6_0_Layer0_0_FILL">
<path fill="#FFFFFF" stroke="none" d="
M -0.05 -18
L -4.95 -4.75 -18.75 -5 -7.65 4.25 -11.9 17.5 -0.3 9.5 11.65 18 7.9 4.35 18.75 -4.35 4.9 -4.75 -0.05 -18 Z"/>
</g>

<path id="pic_arm1_0_Layer0_0_1_STROKES" stroke="#E17107" stroke-width="6" stroke-linejoin="round" stroke-linecap="round" fill="none" d="
M -23.65 -12.75
Q -2.5 33.75 29.6 7.4"/>

<path id="pic_shoulder_0_Layer0_0_1_STROKES" stroke="#E17107" stroke-width="6.5" stroke-linejoin="round" stroke-linecap="round" fill="none" d="
M -2.3 14.45
L 2.3 14.45
Q 5.65 14.45 8.15 12.3 8.6 11.95 8.95 11.65 11.65 8.95 11.65 5.1
L 11.65 -5.1
Q 11.65 -8.95 8.95 -11.8 7.95 -12.85 6.7 -13.4 4.75 -14.45 2.3 -14.45
L -2.3 -14.45
Q -4.8 -14.45 -6.7 -13.4 -7.95 -12.85 -9 -11.8 -11.65 -8.95 -11.65 -5.1
L -11.65 5.1
Q -11.65 8.95 -9 11.65 -8.65 11.95 -8.15 12.3 -5.7 14.45 -2.3 14.45 Z"/>

<path id="pic_neck_0_Layer0_0_1_STROKES" stroke="#E17107" stroke-width="6.5" stroke-linejoin="round" stroke-linecap="round" fill="none" d="
M 10.55 -12.8
L 10.55 12.8
M -10.55 12.8
L -10.55 -12.8"/>

<path id="pic_foot2_0_Layer1_0_1_STROKES" stroke="#E17107" stroke-width="6.5" stroke-linejoin="round" stroke-linecap="round" fill="none" d="
M -29.5 18.35
Q -29.45 14.25 -28.3 9.1 -26 -1.2 -20.55 -6.7 -12.1 -15.2 0 -15.2 11.2 -15.2 20.55 -6.7 27 -0.85 28.45 9.3 29.15 14.35 28.55 18.35 28.1 22.05 20.1 24.7 11.6 27.55 -0.45 27.55 -12.5 27.55 -21.05 24.7 -29.05 22.05 -29.5 18.35 Z"/>

<path id="pic_leg2_0_Layer0_0_1_STROKES" stroke="#E17107" stroke-width="6.5" stroke-linejoin="round" stroke-linecap="round" fill="none" d="
M -24.5 10.05
Q 9.6 12.65 39.4 -19.25"/>

<path id="pic_leg1_0_Layer0_0_1_STROKES" stroke="#E17107" stroke-width="6.5" stroke-linejoin="round" stroke-linecap="round" fill="none" d="
M -39 3.55
Q -22.9 20.05 32.05 13.3"/>

<path id="pic_antenna_0_Layer0_0_1_STROKES" stroke="#E17107" stroke-width="5" stroke-linejoin="round" stroke-linecap="round" fill="none" d="
M 9.55 -21.15
Q 2.85 -5.55 3.3 5.7
M 2.6 -54.5
Q -10.5 -18.35 -10.95 3
L -8.1 34.8"/>

<path id="star_0_Layer0_0_1_STROKES" stroke="#E17107" stroke-width="4" stroke-linejoin="round" stroke-linecap="round" fill="none" d="
M 20.05 31
L -0.6 16.35 -20.45 30.15 -13.15 7.3 -32.3 -8.6 -8.55 -8.15 -0.05 -30.95 8.5 -8.25 32.35 -7.5 13.6 7.45 20.05 31 Z"/>

<path id="pic_body_0_Layer0_0_1_STROKES" stroke="#E17107" stroke-width="6.5" stroke-linejoin="round" stroke-linecap="round" fill="none" d="
M 43.45 35.7
Q 37.65 1 42.9 -33.4 43.3 -35.9 43.2 -37.65 42.9 -45.85 33.25 -46.95 9.4 -49.7 -17.1 -52.7 -33.45 -54.55 -36.7 -39.85 -41.6 -18.95 -41.6 1.4 -41.6 21.7 -36.7 40.7 -36.55 42.25 -35.75 43.8 -31.35 53.85 -17.25 52.4 9.4 49.45 33.25 46.95 43 45.75 43.45 37.75 43.6 36.7 43.45 35.7 Z"/>

<path id="pic_rim_0_Layer0_0_1_STROKES" stroke="#E17107" stroke-width="6.5" stroke-linejoin="round" stroke-linecap="round" fill="none" d="
M 42 -38.4
Q 42.35 -38.25 42.7 -38 42.8 -37.8 43.05 -37.7 46.2 -34.85 46.25 -30.3 46.2 -25.85 43.05 -22.3 39.9 -18.75 35.35 -17.85 18.95 -11.7 -4.9 -13.7 -27.75 -15.55 -41.6 -23.25 -42.95 -24 -45.7 -25.5 -48 -26.85 -49.3 -28.35 -52.4 -31.85 -52.5 -36.35 -52.4 -40.9 -49.3 -43.75 -45.25 -47.2 -41.6 -45.55 -26.55 -38.55 -5.15 -35.95 19.9 -33 35.35 -39.45 39.05 -40.3 42 -38.4 Z"/>

<path id="pic_head_0_Layer0_0_1_STROKES" stroke="#E17107" stroke-width="6.5" stroke-linejoin="round" stroke-linecap="round" fill="none" d="
M 66.75 47.8
L 68.6 -10.15
Q 68.6 -27.5 61.8 -41.9 57.15 -51.2 49.65 -59.35 47.25 -62 44.8 -63.95 38.7 -69.7 31.5 -73.2 18.9 -79.5 3.75 -79.65 -23.5 -78.65 -44.1 -57.75 -52.05 -49.3 -57.2 -39.8 -58.95 -36.75 -60.3 -33.6 -65.6 -21.6 -66.5 -7.85 -66.75 -5.45 -66.85 -3.15 -67.15 0.4 -68.6 61.8
L -68.3 64.2
Q -67.4 68.25 -64.3 71.35 -60.15 75.05 -52.4 77.15 -49.4 77.5 -46.25 77.95 -42.8 78.3 -39.45 78.65 -37.15 78.75 -34.7 78.9 -16.55 79.35 -14.4 79.65 -13 79.7 -11.75 79.65 -10.85 79.65 -10.1 79.65 -6.4 79.55 -2.35 79.5
L 22.5 78.5 47.9 75.45
Q 62.45 71.25 65 61.6 65.75 59.15 66.75 47.8 Z"/>

<path id="pic_chestIcon_0_Layer0_0_1_STROKES" stroke="#E17107" stroke-width="5" stroke-linejoin="round" stroke-linecap="round" fill="none" d="
M -3.15 6.75
Q -0.3 9.75 3.55 9.5 7.35 9.65 10.15 6.6 12.85 3.95 12.8 -0.05 12.9 -3.8 10.15 -6.6 7.2 -9.35 3.4 -9.4 -0.55 -9.35 -3.15 -6.75 -6.05 -3.75 -5.95 -0.05 -6.1 4.1 -3.15 6.75 Z
M -15.3 15.45
Q -8.95 22.05 0.05 21.65 9 21.65 15.4 15.25 21.6 8.95 21.65 -0.1 21.6 -8.8 15.3 -15.3 9.05 -21.5 0.15 -21.65 -8.95 -21.85 -15.2 -15.5 -21.65 -9 -21.6 -0.05 -21.6 9.2 -15.3 15.45 Z"/>

<path id="cameraButton_0_Layer0_0_1_STROKES" stroke="#E17107" stroke-width="6" stroke-linejoin="round" stroke-linecap="round" fill="none" d="
M -9.821768951415834 -8.234587097167946
L -6.416759490966797 -11.08787078857415
Q -4.340534210205078 -12.8276779174804 -1.7423171997070312 -12.679690551757744 0.8558998107910156 -12.531703186035088 2.491413116455078 -10.5804855346679
L 10.865241241454896 -0.5902511596679005
Q 12.500754547118959 1.360966491699287 12.1922561645506 3.944683837890693 11.88375778198224 6.5284011840820995 9.807532501220521 8.26820831298835
L 6.402523040771484 11.121492004394554
Q 4.326297760009766 12.861299133300804 1.7280807495117188 12.713311767578148 -0.8701362609863281 12.565324401855491 -2.5056495666503906 10.614106750488304
L -10.879477691650209 0.623872375488304
Q -12.514990997314271 -1.3273452758788835 -12.206492614745912 -3.9110626220702898 -11.897994232177552 -6.494779968261696 -9.821768951415834 -8.234587097167946 Z"/>

<path id="cameraBase_0_Layer0_0_1_STROKES" stroke="#E17107" stroke-width="6.5" stroke-linejoin="round" stroke-linecap="round" fill="none" d="
M -32.25 -15.8
L 10.6 -56.5 51.95 -12.85 16.75 35 -8.1 56.55 -51.9 12.05 -32.25 -15.8 16.75 35"/>

<path id="cameraLens_0_Layer0_0_1_STROKES" stroke="#E17107" stroke-width="6.5" stroke-linejoin="round" stroke-linecap="round" fill="none" d="
M 25.75 8.45
Q 26.2 8.2 26.6 7.9 26.85 7.7 27.15 7.5 28.45 6.5 29.7 5.15 35.45 -1 34.3 -10.2 33.05 -19.45 25.7 -26.3 18.35 -33.1 9.05 -33.6 -0.25 -34.1 -5.95 -27.85 -6.05 -27.8 -6.15 -27.7 -6.75 -27.05 -7.3 -26.3 -9.3 -23.55 -10.15 -20.4 -11.1 -16.8 -10.55 -12.5 -9.35 -3.3 -1.9 3.5 5.45 10.35 14.75 10.85 21 11.25 25.75 8.45 Z
M 26.6 7.9
L 25.7 8.6 -1.65 29.55
Q -6.3 34.05 -13.45 33.65 -21.1 33.25 -27.2 27.6 -33.3 22 -34.3 14.45 -35.2 6.85 -30.5 1.75 -30.2 1.4 -29.9 1.2
L -7.3 -26.3"/>

<path id="cameraLens_0_Layer0_0_2_STROKES" stroke="#E17107" stroke-width="5" stroke-linejoin="round" stroke-linecap="round" fill="none" d="
M -10.15 -20.4
Q -5.45 -23.2 0.85 -22.85 10.15 -22.35 17.6 -15.55 24.95 -8.7 26.15 0.55 26.7 4.8 25.75 8.45 25.75 8.5 25.7 8.6"/>

<path id="pic_eye_0_Layer0_0_1_STROKES" stroke="#E17107" stroke-width="6.5" stroke-linejoin="round" stroke-linecap="round" fill="none" d="
M -15.15 -3.25
Q -16.25 3.1 -12.6 8.35 -8.95 13.85 -2.65 15.1 3.55 16.45 8.9 12.95 14.05 9.5 15.15 3.15 16.35 -3.1 12.85 -8.45 9.15 -13.75 3 -15.15 -3.35 -16.4 -8.65 -13 -13.95 -9.5 -15.15 -3.25 Z"/>

<path id="pic_foot1_0_Layer1_0_1_STROKES" stroke="#E17107" stroke-width="6.5" stroke-linejoin="round" stroke-linecap="round" fill="none" d="
M 28.95 17.2
Q 28.95 17.9 28.95 18.6
L -29.15 18.6
Q -29.15 17.9 -29.15 17.2 -29.15 5.15 -20.65 -3.35 -12.15 -11.85 -0.1 -11.85 11.95 -11.85 20.45 -3.35 28.95 5.15 28.95 17.2 Z"/>

<path id="pic_foot1_0_Layer0_0_1_STROKES" stroke="#E17107" stroke-width="6.5" stroke-linejoin="round" stroke-linecap="round" fill="none" d="
M -29.6 21.7
Q -29.6 21.5 -29.6 21.25 -29.6 17.3 -21.15 14.45 -12.6 11.65 -0.55 11.65 11.5 11.65 20 14.45 28.5 17.3 28.5 21.25 28.5 21.5 28.45 21.7 28 25.4 20 28.05 11.5 30.9 -0.55 30.9 -12.6 30.9 -21.15 28.05 -29.15 25.4 -29.6 21.7 Z"/>

<path id="pic_finger_0_Layer0_0_1_STROKES" stroke="#E17107" stroke-width="6.5" stroke-linejoin="round" stroke-linecap="round" fill="none" d="
M 0 -2.65
L 0 9.85"/>

<path id="pic_foream_0_Layer0_0_1_STROKES" stroke="#E17107" stroke-width="6.5" stroke-linejoin="round" stroke-linecap="round" fill="none" d="
M -7.1 36.55
L 4.6 36.85
Q 5.85 36.85 7.05 36.55 11.75 34.95 13.55 25.85
L 17.15 -0.8
Q 19.95 -25.7 9.95 -27.6 9.35 -27.6 8.8 -27.6
L -7.75 -28.1
Q -18.7 -28.4 -17.3 -1.7
L -15.75 25.1
Q -13.8 36.05 -7.45 36.55 -7.3 36.55 -7.1 36.55 Z"/>

<path id="pic_mouth_0_Layer0_0_1_STROKES" stroke="#E17107" stroke-width="5" stroke-linejoin="round" stroke-linecap="round" fill="none" d="
M -54.05 -10.15
Q -27.9 6.8 20.5 9.55"/>

<path id="star_6_0_Layer0_0_1_STROKES" stroke="#E17107" stroke-width="3" stroke-linejoin="round" stroke-linecap="round" fill="none" d="
M 11.65 18
L -0.3 9.5 -11.9 17.5 -7.65 4.25 -18.75 -5 -4.95 -4.75 -0.05 -18 4.9 -4.75 18.75 -4.35 7.9 4.35 11.65 18 Z"/>
</defs>

<g transform="matrix( 1, 0, 0, 1, 224.95,210.35) ">
<g transform="matrix( 0.8070220947265625, -0.5878448486328125, 0.5878448486328125, 0.8070220947265625, 12.55,13.45) ">
<g transform="matrix( 1, 0, 0, 1, 0,0) ">
<use xlink:href="#pic_arm1_0_Layer0_0_1_STROKES"/>
</g>
</g>

<g transform="matrix( 0.8833465576171875, -0.465789794921875, 0.465789794921875, 0.8833465576171875, -20.45,17.25) ">
<g transform="matrix( 1, 0, 0, 1, 0,0) ">
<use xlink:href="#pic_shoulder_0_Layer0_0_FILL"/>

<use xlink:href="#pic_shoulder_0_Layer0_0_1_STROKES"/>
</g>
</g>

<g transform="matrix( 0.9085693359375, -0.4146881103515625, 0.4146881103515625, 0.9085693359375, -61.7,13.05) ">
<g transform="matrix( 1, 0, 0, 1, 0,0) ">
<use xlink:href="#pic_neck_0_Layer0_0_FILL"/>

<use xlink:href="#pic_neck_0_Layer0_0_1_STROKES"/>
</g>
</g>

<g transform="matrix( -0.3956451416015625, -0.9170684814453125, 0.9170684814453125, -0.3956451416015625, 93.4,69.05) ">
<g transform="matrix( 1, 0, 0, 1, 0,0) ">
<use xlink:href="#pic_foot2_0_Layer1_0_FILL"/>

<use xlink:href="#pic_foot2_0_Layer1_0_1_STROKES"/>
</g>
</g>

<g transform="matrix( 0.96820068359375, 0.2469635009765625, -0.2469635009765625, 0.96820068359375, 40.9,81.2) ">
<g transform="matrix( 1, 0, 0, 1, 0,0) ">
<use xlink:href="#pic_leg2_0_Layer0_0_1_STROKES"/>
</g>
</g>

<g transform="matrix( 0.989654541015625, 0.140167236328125, -0.140167236328125, 0.989654541015625, 33.15,123.65) ">
<g transform="matrix( 1, 0, 0, 1, 0,0) ">
<use xlink:href="#pic_leg1_0_Layer0_0_1_STROKES"/>
</g>
</g>

<g transform="matrix( 0.989654541015625, 0.140167236328125, -0.140167236328125, 0.989654541015625, -102,-149.8) ">
<g transform="matrix( 1, 0, 0, 1, 0,0) ">
<use xlink:href="#pic_antenna_0_Layer0_0_1_STROKES"/>
</g>
</g>

<g transform="matrix( 0.9999847412109375, 0, 0, 0.9999847412109375, -187.5,101.6) ">
<g transform="matrix( 1, 0, 0, 1, 0,0) ">
<use xlink:href="#star_0_Layer0_0_FILL"/>

<use xlink:href="#star_0_Layer0_0_1_STROKES"/>
</g>
</g>

<g transform="matrix( 0.8092498779296875, -0.5847625732421875, 0.5847625732421875, 0.8092498779296875, -36.3,58.9) ">
<g transform="matrix( 1, 0, 0, 1, 0,0) ">
<use xlink:href="#pic_body_0_Layer0_0_FILL"/>

<use xlink:href="#pic_body_0_Layer0_0_1_STROKES"/>
</g>
</g>

<g transform="matrix( 0.67315673828125, -0.7372589111328125, 0.7372589111328125, 0.67315673828125, 24.4,115) ">
<g transform="matrix( 1, 0, 0, 1, 0,0) ">
<use xlink:href="#pic_rim_0_Layer0_0_FILL"/>

<use xlink:href="#pic_rim_0_Layer0_0_1_STROKES"/>
</g>
</g>

<g transform="matrix( 0.932373046875, -0.3583831787109375, 0.3583831787109375, 0.932373046875, -96.15,-68.9) ">
<g transform="matrix( 1, 0, 0, 1, 0,0) ">
<use xlink:href="#pic_head_0_Layer0_0_FILL"/>

<use xlink:href="#pic_head_0_Layer0_0_1_STROKES"/>
</g>
</g>

<g transform="matrix( 0.4785003662109375, -0.302642822265625, 0.5337371826171875, 0.8438720703125, -16.65,42.5) ">
<g transform="matrix( 1, 0, 0, 1, 0,0) ">
<use xlink:href="#pic_chestIcon_0_Layer0_0_1_STROKES"/>
</g>
</g>

<g transform="matrix( 0.8833770751953125, -0.4657135009765625, 0.4657135009765625, 0.8833770751953125, -68.45,45.25) ">
<g transform="matrix( 1, 0, 0, 1, 0,0) ">
<use xlink:href="#pic_shoulder_0_Layer0_0_FILL"/>

<use xlink:href="#pic_shoulder_0_Layer0_0_1_STROKES"/>
</g>
</g>

<g transform="matrix( 1, 0, 0, 1, 20.1,-19.4) ">
<g transform="matrix( 0.8304901123046875, -0.6959228515625, 0.654205322265625, 0.780487060546875, -1577.85,-738.8) ">
<use xlink:href="#cameraButton_0_Layer0_0_FILL"/>

<use xlink:href="#cameraButton_0_Layer0_0_1_STROKES" transform="matrix( 0.707305908203125, 0.6306610107421875, -0.592864990234375, 0.7526092529296875, 678,1551.1) "/>
</g>
</g>

<g transform="matrix( 1, 0, 0, 1, 49.9,-5.2) ">
<g transform="matrix( 1, 0, 0, 1, 0,0) ">
<use xlink:href="#cameraBase_0_Layer0_0_FILL"/>

<use xlink:href="#cameraBase_0_Layer0_0_1_STROKES"/>
</g>
</g>

<g transform="matrix( 1, 0, 0, 1, 82.7,-37.75) ">
<g transform="matrix( 1, 0, 0, 1, 0,0) ">
<use xlink:href="#cameraLens_0_Layer0_0_FILL"/>

<use xlink:href="#cameraLens_0_Layer0_0_1_STROKES"/>

<use xlink:href="#cameraLens_0_Layer0_0_2_STROKES"/>
</g>
</g>

<g transform="matrix( 0.9458160400390625, -0.3215484619140625, 0.321533203125, 0.9457855224609375, -87.6,-84) ">
<g transform="matrix( 1, 0, 0, 1, 0,0) ">
<use xlink:href="#pic_eye_0_Layer0_0_1_STROKES"/>
</g>
</g>

<g transform="matrix( 0.6197967529296875, -0.210693359375, 0.3215484619140625, 0.9458160400390625, -48.65,-97.05) ">
<g transform="matrix( 1, 0, 0, 1, 0,0) ">
<use xlink:href="#pic_eye_0_Layer0_0_1_STROKES"/>
</g>
</g>

<g transform="matrix( -0.0043792724609375, -0.9999542236328125, 0.9999542236328125, -0.0043792724609375, 65.7,141.05) ">
<g transform="matrix( 1, 0, 0, 1, 0,0) ">
<use xlink:href="#pic_foot1_0_Layer1_0_FILL"/>

<use xlink:href="#pic_foot1_0_Layer1_0_1_STROKES"/>
</g>

<g transform="matrix( 1, 0, 0, 1, 0,0) ">
<use xlink:href="#pic_foot1_0_Layer0_0_FILL"/>

<use xlink:href="#pic_foot1_0_Layer0_0_1_STROKES"/>
</g>
</g>

<g transform="matrix( 0.989654541015625, 0.140167236328125, -0.140167236328125, 0.989654541015625, -46.35,65.55) ">
<g transform="matrix( 1, 0, 0, 1, 0,0) ">
<use xlink:href="#pic_arm1_0_Layer0_0_1_STROKES"/>
</g>
</g>

<g transform="matrix( 0.754791259765625, 0.6534576416015625, -0.6534576416015625, 0.754791259765625, 35.95,27.25) ">
<g transform="matrix( 1, 0, 0, 1, 0,0) ">
<use xlink:href="#pic_finger_0_Layer0_0_1_STROKES"/>
</g>
</g>

<g transform="matrix( 0.8480682373046875, 0.5270538330078125, -0.5270538330078125, 0.8480682373046875, 21.75,13.85) ">
<g transform="matrix( 1, 0, 0, 1, 0,0) ">
<use xlink:href="#pic_finger_0_Layer0_0_1_STROKES"/>
</g>
</g>

<g transform="matrix( 0.7744293212890625, 0.630096435546875, -0.630096435546875, 0.7744293212890625, 29.65,20.05) ">
<g transform="matrix( 1, 0, 0, 1, 0,0) ">
<use xlink:href="#pic_finger_0_Layer0_0_1_STROKES"/>
</g>
</g>

<g transform="matrix( 0.772216796875, 0.6327972412109375, -0.6327972412109375, 0.772216796875, 4.75,49.8) ">
<g transform="matrix( 1, 0, 0, 1, 0,0) ">
<use xlink:href="#pic_foream_0_Layer0_0_FILL"/>

<use xlink:href="#pic_foream_0_Layer0_0_1_STROKES"/>
</g>
</g>

<g transform="matrix( 0.83880615234375, -0.5416259765625, 0.5416259765625, 0.83880615234375, -49.5,-65.2) ">
<g transform="matrix( 1, 0, 0, 1, 0,0) ">
<use xlink:href="#pic_mouth_0_Layer0_0_1_STROKES"/>
</g>
</g>

<g transform="matrix( 1, 0, 0, 1, 188.5,174.35) ">
<g transform="matrix( 1, 0, 0, 1, 0,0) ">
<use xlink:href="#star_0_Layer0_0_FILL"/>

<use xlink:href="#star_0_Layer0_0_1_STROKES"/>
</g>
</g>

<g transform="matrix( 1, 0, 0, 1, -138.25,161.45) ">
<g transform="matrix( 1, 0, 0, 1, 0,0) ">
<use xlink:href="#star_6_0_Layer0_0_FILL"/>

<use xlink:href="#star_6_0_Layer0_0_1_STROKES"/>
</g>
</g>
</g>
</svg>
