<?xml version="1.0" standalone="no"?>
<!DOCTYPE svg PUBLIC "-//W3C//DTD SVG 20010904//EN"
 "http://www.w3.org/TR/2001/REC-SVG-20010904/DTD/svg10.dtd">
<svg version="1.0" xmlns="http://www.w3.org/2000/svg"
 width="512.000000pt" height="512.000000pt" viewBox="0 0 512.000000 512.000000"
 preserveAspectRatio="xMidYMid meet">
<metadata>
Created by potrace 1.11, written by Peter Selinger 2001-2013
</metadata>
<g transform="translate(0.000000,512.000000) scale(0.100000,-0.100000)"
fill="#000000" stroke="none">
<path d="M3683 5056 c-104 -20 -225 -62 -337 -118 -119 -60 -157 -83 -261
-164 -89 -70 -1011 -991 -980 -979 80 29 220 49 350 49 163 1 252 -16 360 -69
l70 -34 285 283 c157 156 307 298 333 315 129 87 293 131 414 113 150 -24 285
-104 395 -236 72 -86 113 -168 134 -266 19 -89 13 -160 -21 -269 -50 -157 -49
-155 -730 -838 -636 -638 -680 -677 -797 -724 -67 -27 -222 -37 -299 -19 -63
15 -179 66 -235 104 -144 97 -274 290 -292 434 l-7 53 -239 -233 -240 -234 34
-59 c126 -223 264 -374 463 -508 393 -264 841 -247 1292 50 89 59 168 133 746
712 593 593 652 655 717 754 121 182 197 368 223 546 18 124 7 304 -25 416
-32 111 -119 287 -188 380 -72 97 -236 260 -337 334 -106 78 -279 163 -391
192 -107 28 -329 35 -437 15z"/>
<path d="M2275 3639 c-178 -26 -447 -143 -605 -263 -52 -39 -329 -309 -716
-698 -675 -677 -694 -698 -796 -902 -50 -99 -102 -257 -118 -358 -20 -121 -8
-333 23 -438 66 -219 177 -392 373 -580 248 -237 500 -349 789 -350 174 0 328
37 505 121 224 107 258 136 792 667 268 267 486 487 485 488 -2 2 -36 -5 -77
-16 -240 -62 -500 -46 -658 40 l-56 30 -281 -279 c-308 -307 -379 -362 -514
-405 -158 -49 -277 -41 -421 31 -101 51 -240 187 -293 289 -41 80 -67 174 -67
250 0 75 34 193 81 287 41 79 64 103 663 705 379 381 648 643 690 673 97 69
160 91 283 97 91 4 112 2 185 -21 46 -15 112 -43 147 -64 171 -101 314 -296
339 -464 l7 -49 235 235 235 235 -34 66 c-115 222 -348 451 -576 566 -200 102
-408 137 -620 107z"/>
</g>
</svg>
