<?xml version="1.0" standalone="no"?>
<!DOCTYPE svg PUBLIC "-//W3C//DTD SVG 20010904//EN"
 "http://www.w3.org/TR/2001/REC-SVG-20010904/DTD/svg10.dtd">
<svg version="1.0" xmlns="http://www.w3.org/2000/svg"
 width="300.000000pt" height="300.000000pt" viewBox="0 0 300.000000 300.000000"
 preserveAspectRatio="xMidYMid meet">
<metadata>
Created by potrace 1.14, written by Peter Selinger 2001-2017
</metadata>
<g transform="translate(0.000000,300.000000) scale(0.100000,-0.100000)"
fill="#000000" stroke="none">
<path d="M1644 2898 c-4 -6 -10 -83 -12 -170 -3 -87 -5 -158 -6 -158 0 0 -26
7 -56 15 -111 30 -251 12 -364 -47 -88 -46 -204 -166 -245 -252 -57 -121 -62
-165 -56 -464 3 -147 8 -281 11 -299 7 -44 49 -91 102 -114 34 -15 68 -19 151
-19 147 0 201 -8 201 -30 0 -14 -13 -18 -71 -24 -75 -7 -123 -25 -132 -51 -4
-8 -16 -15 -27 -15 -29 0 -80 -53 -80 -83 0 -16 -13 -34 -40 -56 -50 -40 -78
-94 -94 -180 -11 -61 -14 -66 -42 -72 -71 -14 -82 -43 -90 -251 -6 -162 -6
-163 20 -213 14 -27 26 -60 26 -72 0 -18 6 -23 25 -23 20 0 25 5 25 25 0 34
18 32 22 -2 4 -39 42 -39 46 -1 4 35 22 37 22 4 0 -14 5 -28 10 -31 16 -10 40
14 40 38 0 11 10 31 22 44 12 13 24 43 28 70 10 60 -7 329 -22 357 -19 37 -41
56 -64 56 -32 0 -36 12 -23 67 14 58 34 100 62 130 l20 23 18 -40 c13 -29 29
-45 54 -56 l35 -14 0 -146 c0 -131 -2 -147 -20 -166 -25 -27 -27 -94 -4 -126
22 -32 67 -52 114 -52 l41 0 -3 -106 -3 -106 -38 -13 c-68 -23 -127 -99 -127
-163 0 -49 13 -53 191 -50 l164 3 3 30 c9 72 -54 169 -117 181 l-31 7 0 107 0
108 93 7 c50 3 126 5 167 3 l75 -3 3 -108 3 -108 -35 -14 c-69 -29 -119 -102
-114 -168 l3 -42 169 0 c189 0 194 2 182 67 -14 75 -63 125 -148 152 -16 5
-18 19 -18 116 l0 110 45 0 c35 0 51 6 80 31 30 27 35 37 35 75 0 25 -7 55
-15 68 -12 17 -17 64 -22 175 -6 139 -5 151 11 151 27 0 76 55 76 84 0 71 80
-57 95 -151 6 -41 6 -43 -19 -43 -13 0 -37 -10 -51 -22 -33 -30 -45 -100 -45
-278 0 -138 10 -183 46 -203 8 -4 14 -22 14 -38 0 -26 3 -30 23 -27 16 2 23
11 25 31 4 33 22 26 22 -9 0 -17 5 -24 20 -24 11 0 21 6 21 13 1 6 2 18 3 24
2 23 21 14 24 -12 5 -39 42 -34 42 5 0 17 10 44 22 61 28 38 34 131 20 295
-12 139 -27 171 -82 180 -35 6 -40 10 -40 33 0 38 -27 125 -51 166 -11 19 -35
44 -54 55 -23 14 -35 30 -39 54 -7 39 -26 58 -78 79 -21 9 -38 20 -38 25 0 18
-34 26 -125 32 -72 4 -90 8 -93 21 -3 14 15 17 135 21 150 5 195 17 246 65 15
15 32 43 37 62 16 58 13 546 -5 635 -18 95 -69 195 -140 274 l-54 59 -3 94
c-3 89 -4 94 -25 97 -22 3 -23 0 -23 -72 0 -42 -2 -76 -5 -76 -4 0 -19 7 -35
15 l-30 16 0 179 c0 150 -2 180 -14 180 -8 0 -18 -5 -22 -12z m-63 -366 c87
-24 140 -56 219 -134 100 -97 159 -232 160 -364 l0 -41 -107 -17 c-260 -41
-609 -43 -835 -4 l-68 11 0 56 c0 218 168 438 379 497 68 18 177 17 252 -4z
m381 -746 c3 -84 1 -182 -3 -217 -6 -55 -12 -68 -42 -95 -48 -45 -88 -48 -498
-41 -481 7 -453 -10 -462 288 -4 111 -5 204 -3 206 2 2 59 -3 127 -12 141 -17
503 -20 644 -5 117 13 179 21 184 26 2 2 14 4 26 4 22 0 22 -3 27 -154z m-422
-426 c0 -18 -7 -20 -60 -20 -53 0 -60 2 -60 20 0 18 7 20 60 20 53 0 60 -2 60
-20z m222 -87 c13 -15 17 -66 23 -280 l7 -263 -149 0 c-81 0 -211 -3 -289 -7
l-141 -6 -7 250 c-7 266 -3 297 36 313 13 5 131 9 264 9 217 1 242 -1 256 -16z
m98 -62 c14 -27 13 -124 -2 -139 -23 -23 -28 -11 -28 73 0 84 9 104 30 66z
m-706 -43 c10 -87 8 -118 -9 -118 -22 0 -35 33 -35 92 0 48 12 78 31 78 3 0 9
-24 13 -52z m961 -342 c21 -31 34 -331 16 -364 -10 -20 -20 -22 -86 -22 -67 0
-76 2 -87 23 -18 31 -13 306 7 353 14 33 15 34 74 34 53 0 63 -3 76 -24z
m-1116 -5 c23 -23 31 -81 34 -241 3 -153 -1 -160 -93 -160 -102 0 -105 6 -97
208 3 86 9 165 13 175 15 39 110 51 143 18z m808 -153 c22 -28 21 -59 0 -83
l-22 -25 -287 -7 c-308 -7 -310 -7 -329 44 -12 32 -1 53 35 69 43 19 589 20
603 2z m-445 -447 c30 -11 53 -42 63 -83 l7 -28 -131 0 c-123 0 -131 1 -131
19 0 26 47 81 85 97 31 14 60 13 107 -5z m385 4 c41 -17 68 -48 79 -89 l6 -26
-131 0 c-116 0 -131 2 -131 17 0 29 44 82 80 97 45 19 52 19 97 1z"/>
<path d="M1145 2266 c-88 -39 -96 -175 -13 -226 111 -67 239 36 193 157 -9 24
-27 50 -39 58 -33 22 -106 28 -141 11z m114 -21 c38 -19 65 -77 57 -120 -15
-80 -124 -114 -186 -57 -99 88 11 239 129 177z"/>
<path d="M1617 2259 c-59 -46 -60 -147 -1 -198 28 -25 43 -31 82 -31 52 0 97
24 118 62 29 52 10 139 -38 172 -34 24 -129 21 -161 -5z m156 -16 c28 -26 46
-73 40 -108 -12 -68 -92 -110 -155 -81 -62 29 -84 96 -52 157 29 57 120 74
167 32z"/>
<path d="M1449 1146 c-77 -24 -109 -68 -109 -150 0 -75 25 -117 86 -147 111
-53 234 25 234 148 0 46 -27 100 -63 127 -33 25 -104 35 -148 22z m105 -30
c65 -27 95 -120 61 -186 -19 -37 -74 -70 -117 -70 -75 0 -147 84 -134 155 16
86 109 135 190 101z"/>
<path d="M1435 1055 c-50 -49 -18 -145 48 -145 53 0 77 11 92 41 21 40 19 63
-11 98 -34 41 -92 44 -129 6z m109 -21 c24 -24 19 -60 -11 -83 -27 -22 -56
-21 -82 4 -17 16 -18 60 -1 80 16 20 74 19 94 -1z"/>
</g>
</svg>
